<?xml version="1.0" standalone="no"?>
<!DOCTYPE svg PUBLIC "-//W3C//DTD SVG 1.1//EN" "http://www.w3.org/Graphics/SVG/1.1/DTD/svg11.dtd">
<svg xmlns="http://www.w3.org/2000/svg" viewBox="-7.359999999999999 -55.720000000000006 62.900000000000006 66.32000000000001">
  <g >
    <path d="M3.78 0.60L2.64 0.60Q3.66-2.16 5.64-4.53Q7.62-6.90 10.44-8.46L10.44-8.46L16.68-18.90Q13.62-20.40 11.58-23.37Q9.54-26.34 9.54-30.48L9.54-30.48Q9.54-35.04 11.85-38.40Q14.16-41.76 17.91-43.62Q21.66-45.48 25.92-45.48L25.92-45.48Q31.56-45.48 36.36-42.36L36.36-42.36L40.32-45.72L41.64-44.64L40.62-43.50Q39.84-42.42 39.51-41.10Q39.18-39.78 39.18-38.04L39.18-38.04L39.18-15.12Q39.18-12.12 39.57-10.02Q39.96-7.92 41.76-6.54L41.76-6.54L43.80-8.22L45.54-6.24L37.56 0.18Q33.48-2.52 30.36-6.18L30.36-6.18L23.64-0.42Q19.56-3.90 14.22-3.90L14.22-3.90Q11.28-3.90 8.52-2.70Q5.76-1.50 3.78 0.60L3.78 0.60ZM12.84-28.80L12.84-28.80Q12.84-25.86 14.07-23.61Q15.30-21.36 17.22-19.86L17.22-19.86L28.50-38.76Q26.34-39.60 24.06-39.60L24.06-39.60Q20.88-39.60 18.33-38.19Q15.78-36.78 14.31-34.35Q12.84-31.92 12.84-28.80ZM30.06-38.04L20.40-21.84L31.44-21.84L31.44-37.20Q30.78-37.68 30.06-38.04L30.06-38.04ZM31.44-15.66L16.80-15.66L17.16-16.32L13.14-9.60Q15.66-10.44 18.42-10.44L18.42-10.44Q23.58-10.44 27.84-7.62L27.84-7.62L31.44-10.68L31.44-15.66Z"/>
  </g>
</svg>