<?xml version="1.0" standalone="no"?>
<!DOCTYPE svg PUBLIC "-//W3C//DTD SVG 1.1//EN" "http://www.w3.org/Graphics/SVG/1.1/DTD/svg11.dtd">
<svg xmlns="http://www.w3.org/2000/svg" viewBox="-4.42 -56.14 58.88 67.22">
  <g >
    <path d="M26.04 1.08L26.04 1.08Q21.72 1.08 18-0.69Q14.28-2.46 11.49-5.52Q8.70-8.58 7.14-12.51Q5.58-16.44 5.58-20.76L5.58-20.76Q5.58-26.34 7.86-30.90Q10.14-35.46 13.86-38.67Q17.58-41.88 21.96-43.38L21.96-43.38L22.50-42.48Q18.54-40.44 16.08-36.48L16.08-36.48L31.92-46.14L31.92-46.14L31.92-46.14Q34.14-44.46 36.66-43.20Q39.18-41.94 42.06-40.98L42.06-40.98L43.98-42.60L44.46-42L37.32-34.56Q33.54-36.06 30.00-38.10L30.00-38.10L30.00-5.82Q34.20-6.36 37.23-8.82Q40.26-11.28 41.82-14.40L41.82-14.40L42.96-14.40Q42.72-9.90 40.44-6.42Q38.16-2.94 34.41-0.93Q30.66 1.08 26.04 1.08ZM25.56-40.26L25.56-17.82L15.18-13.50Q16.98-9.96 20.16-7.83Q23.34-5.70 27.90-5.70L27.90-5.70Q28.08-5.70 28.26-5.70L28.26-5.70L28.26-39.12Q27.12-39.78 26.04-40.56L26.04-40.56L25.56-40.26ZM12.96-23.88L12.96-23.88Q12.96-18.90 14.52-14.94L14.52-14.94L17.82-16.32L17.82-35.52L14.64-33.60Q12.96-29.28 12.96-23.88Z"/>
  </g>
</svg>