<?xml version="1.0" standalone="no"?>
<!DOCTYPE svg PUBLIC "-//W3C//DTD SVG 1.1//EN" "http://www.w3.org/Graphics/SVG/1.1/DTD/svg11.dtd">
<svg xmlns="http://www.w3.org/2000/svg" viewBox="-4.359999999999999 -56.14 58.82 67.16">
  <g >
    <path d="M26.52 1.02L26.52 1.02Q22.20 1.02 18.39-0.75Q14.58-2.52 11.73-5.64Q8.88-8.76 7.26-12.72Q5.64-16.68 5.64-21.06L5.64-21.06Q5.64-26.58 7.89-31.11Q10.14-35.64 13.89-38.82Q17.64-42 21.96-43.38L21.96-43.38L22.56-42.48Q18.54-40.44 16.14-36.48L16.14-36.48L31.92-46.14L31.92-46.14L31.92-46.14Q34.20-44.46 36.69-43.20Q39.18-41.94 42.12-40.98L42.12-40.98L43.98-42.60L44.46-42L37.32-34.56Q33.54-36.06 30.00-38.10L30.00-38.10L30.00-27.60L43.98-27.60L36.66-19.98L30.00-19.98L30.00-5.82Q34.38-6.36 37.56-8.82Q40.74-11.28 42.42-14.40L42.42-14.40L43.56-14.40Q43.38-9.90 41.07-6.42Q38.76-2.94 34.98-0.96Q31.20 1.02 26.52 1.02ZM25.62-40.26L25.62-17.82L15.18-13.50Q16.98-9.96 20.22-7.83Q23.46-5.70 28.08-5.70L28.08-5.70Q28.20-5.70 28.32-5.70L28.32-5.70L28.32-39.12Q27.18-39.78 26.10-40.56L26.10-40.56L25.62-40.26ZM12.96-23.82L12.96-23.82Q12.96-18.84 14.52-14.94L14.52-14.94L17.88-16.32L17.88-35.52L14.70-33.60Q12.96-29.28 12.96-23.82Z"/>
  </g>
</svg>