<?xml version="1.0" standalone="no"?>
<!DOCTYPE svg PUBLIC "-//W3C//DTD SVG 1.1//EN" "http://www.w3.org/Graphics/SVG/1.1/DTD/svg11.dtd">
<svg xmlns="http://www.w3.org/2000/svg" viewBox="-5.199999999999999 -56.74 61.760000000000005 68.18">
  <g >
    <path d="M25.56 1.44L25.56 1.44Q19.62 1.44 14.91-1.32Q10.20-4.08 7.50-8.82Q4.80-13.56 4.80-19.44L4.80-19.44Q4.80-24.00 6.48-28.11Q8.16-32.22 11.07-35.46Q13.98-38.70 17.76-40.77Q21.54-42.84 25.68-43.26L25.68-43.26L31.26-46.74Q33.54-44.88 36.18-43.38Q38.82-41.88 41.76-40.80L41.76-40.80L43.74-42.78L45-41.58L35.04-31.68Q38.16-31.02 40.77-29.04Q43.38-27.06 44.97-24.03Q46.56-21 46.56-17.16L46.56-17.16Q46.56-13.02 44.85-9.60Q43.14-6.18 40.20-3.72Q37.26-1.26 33.48 0.09Q29.70 1.44 25.56 1.44ZM24.84-41.88L24.78-28.86L24.78-24.00L35.70-34.80Q32.94-36.12 30.33-38.13Q27.72-40.14 25.38-42L25.38-42Q25.08-41.94 24.84-41.88L24.84-41.88ZM13.08-25.98L13.08-25.98Q13.08-22.56 13.50-19.02Q13.92-15.48 14.88-12.30L14.88-12.30Q16.50-14.04 16.92-16.80L16.92-16.80Q17.04-17.64 17.04-18.54Q17.04-19.44 17.04-20.28L17.04-20.28L17.04-37.86Q13.08-33.72 13.08-25.98ZM29.70-25.32L29.70-25.32L29.70-16.50L36.54-19.92Q33.96-23.70 29.70-25.32ZM24.36-16.56L24.36-16.56Q23.52-13.92 21.24-12.09Q18.96-10.26 15.90-9.54L15.90-9.54Q17.58-5.70 20.49-3.24Q23.40-0.78 27.96-0.78L27.96-0.78L28.02-0.78L28.02-24.78L24.78-21.60L24.78-20.58Q24.78-19.56 24.72-18.54Q24.66-17.52 24.36-16.56ZM37.44-18.42L29.70-14.58L29.70-10.20L38.70-14.70Q38.34-16.68 37.44-18.42L37.44-18.42ZM38.88-12.36L38.88-12.36Q38.88-12.66 38.88-12.90L38.88-12.90L29.70-8.28L29.70-0.90Q33.78-1.56 36.33-4.83Q38.88-8.10 38.88-12.36Z"/>
  </g>
</svg>