<?xml version="1.0" standalone="no"?>
<!DOCTYPE svg PUBLIC "-//W3C//DTD SVG 1.1//EN" "http://www.w3.org/Graphics/SVG/1.1/DTD/svg11.dtd">
<svg xmlns="http://www.w3.org/2000/svg" viewBox="-7.3 -56.080000000000005 63.32 68.12">
  <g >
    <path d="M4.32-37.02L4.32-37.02L3.12-37.56Q3.18-37.74 3.66-38.94Q4.14-40.14 5.22-41.61Q6.30-43.08 8.10-44.19Q9.90-45.30 12.66-45.30L12.66-45.30Q14.16-45.30 15.72-45.03Q17.28-44.76 18.90-44.76L18.90-44.76Q20.10-44.76 21.30-45.03Q22.50-45.30 23.76-46.08L23.76-46.08L24.90-45.48Q23.94-44.46 22.53-42.90Q21.12-41.34 19.17-40.14Q17.22-38.94 14.58-38.94L14.58-38.94Q13.14-38.94 11.76-39.21Q10.38-39.48 9.06-39.48L9.06-39.48Q7.80-39.48 6.45-38.97Q5.10-38.46 4.32-37.02ZM4.56 2.04L2.70 2.04Q2.94 1.56 3.90 0.09Q4.86-1.38 6.66-3.09Q8.46-4.80 11.22-6.06Q13.98-7.32 17.70-7.32L17.70-7.32Q20.58-7.32 23.28-6.36L23.28-6.36L23.28-40.32Q21.84-38.76 21.18-37.05Q20.52-35.34 20.52-31.62L20.52-31.62L20.52-18.24Q20.52-17.16 20.34-15.60Q20.16-14.04 19.26-12.36Q18.36-10.68 16.20-9.36L16.20-9.36Q13.20-7.44 9.54-7.14L9.54-7.14L9.54-8.58Q10.80-9.36 11.52-10.41Q12.24-11.46 12.51-13.77Q12.78-16.08 12.78-20.52L12.78-20.52L12.78-20.70L11.34-20.70Q9.42-20.70 8.52-19.74Q7.62-18.78 7.86-17.22L7.86-17.22L6.72-17.22Q5.82-18.90 5.82-20.76L5.82-20.76Q5.82-23.22 6.90-24.54Q7.98-25.86 9.57-26.46Q11.16-27.06 12.78-27.36L12.78-27.36L12.78-28.86Q12.78-31.62 13.59-33.03Q14.40-34.44 15.78-35.40Q17.16-36.36 18.84-37.68L18.84-37.68Q19.62-38.28 20.34-38.97Q21.06-39.66 21.72-40.44L21.72-40.44L23.28-42.18L24.96-42.18L24.96-27.60L33.18-27.60L33.18-38.40L31.62-39.96L29.52-38.34L29.52-40.02L36.48-45.66L40.98-41.94L42.78-43.38L43.80-42.06L41.58-40.26L41.58-7.74L43.26-5.82L45.12-7.38L46.02-6.54L38.04 0.18L32.22-5.10L30.78-3.96L30.12-4.86L33.18-7.26L33.18-20.58L24.96-20.58L24.96-5.70Q25.44-5.46 25.92-5.22L25.92-5.22L19.98 0.54Q19.08-0.06 17.34-0.84Q15.60-1.62 13.14-1.62L13.14-1.62Q8.04-1.62 4.56 2.04L4.56 2.04Z"/>
  </g>
</svg>