<?xml version="1.0" standalone="no"?>
<!DOCTYPE svg PUBLIC "-//W3C//DTD SVG 1.1//EN" "http://www.w3.org/Graphics/SVG/1.1/DTD/svg11.dtd">
<svg xmlns="http://www.w3.org/2000/svg" viewBox="-7.24 -55.480000000000004 61.34 70.208">
  <g >
    <path d="M12.00 3.48L11.76 4.62Q9.66 4.98 7.59 4.14Q5.52 3.30 4.14 1.50Q2.76-0.30 2.76-2.94L2.76-2.94Q2.76-6.60 5.43-8.85Q8.10-11.10 11.82-11.10L11.82-11.10L11.88-11.10L11.88-20.94L11.22-20.94Q10.08-20.94 9.21-20.52Q8.34-20.10 8.34-18.96L8.34-18.96Q8.34-18.06 9.12-17.58L9.12-17.58L8.82-16.74Q7.08-17.16 5.82-18.66Q4.56-20.16 4.56-22.26L4.56-22.26Q4.56-25.14 6.69-27.09Q8.82-29.04 11.82-29.04L11.82-29.04L11.88-29.04L11.88-37.20Q11.22-37.92 10.56-38.40Q9.90-38.88 9.24-38.88L9.24-38.88Q6.54-38.88 6.54-35.64L6.54-35.64L5.40-35.94Q5.22-36.72 5.22-37.56L5.22-37.56Q5.22-40.86 7.44-43.17Q9.66-45.48 12.78-45.48L12.78-45.48Q14.94-45.48 16.32-44.58Q17.70-43.68 18.60-42.33Q19.50-40.98 20.34-39.66L20.34-39.66L34.74-15.48L34.74-35.28Q32.88-35.46 31.32-36.18Q29.76-36.90 28.74-37.92L28.74-37.92L26.40-35.40L25.56-36.24L33.06-44.88L34.20-44.88Q34.98-43.92 36.12-43.11Q37.26-42.30 38.88-42.30L38.88-42.30Q40.38-42.30 41.40-43.20Q42.42-44.10 42.54-45.42L42.54-45.42L43.38-45.42Q44.10-44.04 44.10-42.42L44.10-42.42Q44.10-39.30 41.82-37.41Q39.54-35.52 36.42-35.28L36.42-35.28L36.42 0L34.14 0L14.04-34.08Q13.80-34.50 13.56-34.86L13.56-34.86L13.56-10.92Q15.06-10.74 17.04-9.93Q19.02-9.12 20.94-7.20L20.94-7.20L22.98-9.48L23.82-8.64L16.08 0Q15.24-0.96 13.98-1.77Q12.72-2.58 11.10-2.58L11.10-2.58Q9.78-2.58 8.91-1.83Q8.04-1.08 8.04 0.18L8.04 0.18Q8.04 1.74 9.24 2.70Q10.44 3.66 12.00 3.48L12.00 3.48Z"/>
  </g>
</svg>