<?xml version="1.0" standalone="no"?>
<!DOCTYPE svg PUBLIC "-//W3C//DTD SVG 1.1//EN" "http://www.w3.org/Graphics/SVG/1.1/DTD/svg11.dtd">
<svg xmlns="http://www.w3.org/2000/svg" viewBox="-7.48 -57.160000000000004 61.64 68.9">
  <g >
    <path d="M21 1.74L21 1.74Q17.22 1.74 13.89-0.06Q10.56-1.86 8.01-5.07Q5.46-8.28 3.99-12.60Q2.52-16.92 2.52-21.96L2.52-21.96Q2.52-28.14 4.71-33.18Q6.90-38.22 10.62-41.79Q14.34-45.36 18.84-47.16L18.84-47.16L19.74-46.08Q15.60-43.14 13.02-38.46L13.02-38.46L30.30-45.90Q34.02-44.28 37.17-41.34Q40.32-38.40 42.24-34.32Q44.16-30.24 44.16-25.14L44.16-25.14Q44.16-19.98 42.06-15.18Q39.96-10.38 36.51-6.57Q33.06-2.76 29.01-0.51Q24.96 1.74 21 1.74ZM23.40-40.98L23.40-19.86L12.06-15.06Q13.98-10.62 17.43-7.74Q20.88-4.86 25.56-4.86L25.56-4.86Q25.86-4.86 26.16-4.92L26.16-4.92L26.16-39.72Q24.90-40.38 23.52-41.04L23.52-41.04L23.40-40.98ZM27.90-38.64L27.90-38.64L27.90-24.78L36.12-28.92Q33.60-34.86 27.90-38.64ZM9.96-25.80L9.96-25.80Q9.96-20.94 11.52-16.56L11.52-16.56L15.66-18.36L15.66-37.74L11.94-36.18Q10.98-33.90 10.47-31.29Q9.96-28.68 9.96-25.80ZM36.72-27.30L27.90-22.86L27.90-18.48L37.68-23.40Q37.38-25.44 36.72-27.30L36.72-27.30ZM38.04-18.96L38.04-18.96Q38.04-20.34 37.92-21.60L37.92-21.60L27.90-16.56L27.90-5.10Q30.60-5.70 32.91-7.53Q35.22-9.36 36.63-12.27Q38.04-15.18 38.04-18.96Z"/>
  </g>
</svg>