<?xml version="1.0" standalone="no"?>
<!DOCTYPE svg PUBLIC "-//W3C//DTD SVG 1.1//EN" "http://www.w3.org/Graphics/SVG/1.1/DTD/svg11.dtd">
<svg xmlns="http://www.w3.org/2000/svg" viewBox="-6.76 -57.160000000000004 66.74000000000001 73.58000000000001">
  <g >
    <path d="M21.72 1.74L21.72 1.74Q17.94 1.74 14.61-0.06Q11.28-1.86 8.73-5.07Q6.18-8.28 4.71-12.60Q3.24-16.92 3.24-21.96L3.24-21.96Q3.24-28.14 5.43-33.18Q7.62-38.22 11.34-41.79Q15.06-45.36 19.56-47.16L19.56-47.16L20.46-46.08Q16.32-43.14 13.74-38.46L13.74-38.46L31.02-45.90Q34.74-44.28 37.89-41.34Q41.04-38.40 42.96-34.32Q44.88-30.24 44.88-25.14L44.88-25.14Q44.88-20.40 43.02-15.87Q41.16-11.34 38.22-7.68L38.22-7.68Q39.06-6.30 40.98-4.02Q42.90-1.74 46.32 0L46.32 0L48.72-2.04L49.98-0.78L40.92 6.42Q39.36 5.58 37.29 3.90Q35.22 2.22 32.10-1.98L32.10-1.98Q29.58-0.24 26.91 0.75Q24.24 1.74 21.72 1.74ZM23.76-40.80L23.76-24.96Q23.76-21.18 22.17-18.81Q20.58-16.44 18.21-15.21Q15.84-13.98 13.50-13.62L13.50-13.62Q15.48-9.78 18.75-7.32Q22.02-4.86 26.28-4.86L26.28-4.86Q26.58-4.86 26.88-4.92L26.88-4.92L26.88-39.72Q25.62-40.38 24.24-41.04L24.24-41.04L23.76-40.80ZM28.62-38.64L28.62-38.64L28.62-24.78L36.84-28.92Q34.32-34.86 28.62-38.64ZM10.68-25.80L10.68-25.80Q10.68-20.34 12.60-15.60L12.60-15.60Q14.10-16.68 15.06-19.17Q16.02-21.66 16.02-24.66L16.02-24.66L16.02-37.56L12.66-36.18Q11.70-33.90 11.19-31.29Q10.68-28.68 10.68-25.80ZM37.44-27.30L28.62-22.86L28.62-18.48L38.40-23.40Q38.10-25.44 37.44-27.30L37.44-27.30ZM38.76-18.96L38.76-18.96Q38.76-20.34 38.64-21.60L38.64-21.60L28.62-16.56L28.62-5.10Q31.32-5.70 33.63-7.53Q35.94-9.36 37.35-12.27Q38.76-15.18 38.76-18.96Z"/>
  </g>
</svg>