<?xml version="1.0" standalone="no"?>
<!DOCTYPE svg PUBLIC "-//W3C//DTD SVG 1.1//EN" "http://www.w3.org/Graphics/SVG/1.1/DTD/svg11.dtd">
<svg xmlns="http://www.w3.org/2000/svg" viewBox="-6.52 -56.260000000000005 60.5 67.04">
  <g >
    <path d="M6.48-18.96L5.10-18.96Q4.80-19.98 4.80-21.06L4.80-21.06Q4.80-24.06 6.66-26.37Q8.52-28.68 11.40-28.68L11.40-28.68Q11.76-28.68 12.18-28.62L12.18-28.62L12.18-37.20Q12.18-37.68 12.06-38.52Q11.94-39.36 11.46-40.05Q10.98-40.74 9.90-40.74L9.90-40.74Q7.44-40.74 7.44-37.86L7.44-37.86L6.00-37.86Q6.12-40.80 8.19-43.11Q10.26-45.42 13.74-45.42L13.74-45.42Q16.98-45.42 18.81-43.23Q20.64-41.04 20.64-37.32L20.64-37.32L20.64-34.44L23.04-36.48L23.04-44.88L24.72-44.88L24.72-37.98L34.50-46.26L40.32-40.74L42.90-42.84L43.98-41.52L40.38-38.64L40.38-38.64L40.38-13.86L42.72-15.72L43.86-13.86L24.60 0.78Q22.50-1.44 19.65-2.67Q16.80-3.90 13.74-3.90L13.74-3.90Q10.92-3.90 8.70-3.06Q6.48-2.22 4.62-0.78L4.62-0.78L3.48-0.78Q4.50-3.06 6.69-5.49Q8.88-7.92 12.18-9.24L12.18-9.24L12.18-22.08Q11.70-22.08 11.01-22.08Q10.32-22.08 9.96-22.08L9.96-22.08Q8.28-22.08 7.38-21.42Q6.48-20.76 6.48-19.14L6.48-19.14Q6.48-19.02 6.48-18.96L6.48-18.96ZM32.94-36.48L29.64-39.72L24.72-35.58L24.72-26.34L32.94-30.48L32.94-36.48ZM20.64-32.16L20.64-10.32Q21.84-10.14 23.04-9.78L23.04-9.78L23.04-34.14L20.64-32.16ZM32.94-28.56L24.72-24.42L24.72-20.04L32.94-24.18L32.94-28.56ZM30.00-5.76L30.00-5.76L32.94-8.04L32.94-22.26L24.72-18.12L24.72-9.18Q27.72-7.98 30.00-5.76Z"/>
  </g>
</svg>