<?xml version="1.0" standalone="no"?>
<!DOCTYPE svg PUBLIC "-//W3C//DTD SVG 1.1//EN" "http://www.w3.org/Graphics/SVG/1.1/DTD/svg11.dtd">
<svg xmlns="http://www.w3.org/2000/svg" viewBox="-7.06 -54.7 74.54 65.54">
  <g >
    <path d="M5.82-18.06L4.68-18.06Q3.78-19.74 3.78-21.60L3.78-21.60Q3.78-23.76 4.80-25.17Q5.82-26.58 7.32-27.30L7.32-27.30Q8.34-27.78 9.45-27.99Q10.56-28.20 11.64-28.32L11.64-28.32L11.64-31.02L11.70-36.06Q11.70-36.18 11.61-37.14Q11.52-38.10 10.89-39.03Q10.26-39.96 8.70-39.96L8.70-39.96Q7.38-39.96 6.45-39.09Q5.52-38.22 5.34-37.14L5.34-37.14L3.84-37.14Q3.54-40.20 5.85-42.33Q8.16-44.46 11.64-44.46L11.64-44.46Q14.52-44.46 16.53-43.08Q18.54-41.70 19.38-39.54L19.38-39.54Q19.86-38.28 19.95-37.05Q20.04-35.82 20.04-34.32L20.04-34.32Q20.04-33.66 20.01-32.97Q19.98-32.28 19.98-31.62L19.98-31.62L20.04-30.60L20.04-10.32Q21.42-10.08 22.74-9.66L22.74-9.66L22.74-43.86L24.48-43.86L24.48-38.58L32.64-44.70L38.52-39.12L38.52-10.80L41.64-8.70L41.64-43.86L43.38-43.86L43.38-38.52L51.60-44.64L57.48-39.12L57.48-11.28L41.28 0.84L30.96-6.18L22.92 0.42Q21-1.62 18.39-2.76Q15.78-3.90 12.84-3.90L12.84-3.90Q7.92-3.90 4.08-0.78L4.08-0.78L2.94-0.78Q3.84-2.82 6.03-5.34Q8.22-7.86 11.64-9.30L11.64-9.30L11.64-21.54L9.30-21.54Q7.62-21.54 6.57-20.64Q5.52-19.74 5.82-18.06L5.82-18.06ZM30.78-35.52L26.88-38.70L24.48-36.90L24.48-26.58L30.78-29.76L30.78-35.52ZM49.74-35.46L45.84-38.70L43.38-36.84L43.38-26.58L49.74-29.76L49.74-35.46ZM49.74-27.84L43.38-24.66L43.38-20.28L49.74-23.46L49.74-27.84ZM30.78-27.84L24.48-24.66L24.48-20.28L30.78-23.46L30.78-27.84ZM43.38-18.36L43.38-7.98L42.72-7.98L46.20-5.64L49.74-8.16L49.74-21.54L43.38-18.36ZM26.88-7.62L26.88-7.62L30.78-10.92L30.78-21.54L24.48-18.36L24.48-9Q25.74-8.40 26.88-7.62Z"/>
  </g>
</svg>