<?xml version="1.0" standalone="no"?>
<!DOCTYPE svg PUBLIC "-//W3C//DTD SVG 1.1//EN" "http://www.w3.org/Graphics/SVG/1.1/DTD/svg11.dtd">
<svg xmlns="http://www.w3.org/2000/svg" viewBox="-7.24 -55.120000000000005 57.02 65.18">
  <g >
    <path d="M16.62-19.80L9.72-19.80L14.76-27.42L23.88-27.42Q24.36-27.90 24.78-28.35Q25.20-28.80 25.56-29.16L25.56-29.16L31.02-34.32Q26.82-33.54 22.56-33.54L22.56-33.54Q17.94-33.54 13.98-34.32Q10.02-35.10 6.12-36.66L6.12-36.66L3.90-33.42L2.76-33.96L8.82-45.12Q12.30-43.86 16.56-42.84Q20.82-41.82 25.08-41.82L25.08-41.82Q28.68-41.82 31.50-42.54Q34.32-43.26 36.96-44.64L36.96-44.64L38.04-43.44Q37.44-41.28 36.48-39.39Q35.52-37.50 33.63-35.04Q31.74-32.58 28.38-28.74L28.38-28.74L27.12-27.42L33.06-27.42L27.96-19.80L20.10-19.80L10.86-9.84Q13.56-10.62 16.02-11.01Q18.48-11.40 21.30-11.40L21.30-11.40Q25.92-11.40 29.70-10.56Q33.48-9.72 37.20-8.04L37.20-8.04L38.94-10.08L39.78-9.48L32.34 0.06Q28.86-1.26 24.78-2.31Q20.70-3.36 16.14-3.36L16.14-3.36Q12.54-3.36 9.33-2.43Q6.12-1.50 3.72 0L3.72 0L3.12-0.54Q6.48-6.78 9.99-11.55Q13.50-16.32 16.62-19.80L16.62-19.80Z"/>
  </g>
</svg>