<?xml version="1.0" standalone="no"?>
<!DOCTYPE svg PUBLIC "-//W3C//DTD SVG 1.1//EN" "http://www.w3.org/Graphics/SVG/1.1/DTD/svg11.dtd">
<svg xmlns="http://www.w3.org/2000/svg" viewBox="-10 -67.60000000000001 60.824000000000005 77.60000000000001">
  <g >
    <path d="M38.02-23.54L38.02-23.54Q37.87-24.48 37.37-25.34L37.37-25.34Q36.00-27.43 32.76-28.87L32.76-28.87Q37.66-31.10 38.02-35.21L38.02-35.21Q38.09-36.50 38.38-37.58L38.38-37.58Q39.10-40.18 40.82-41.11L40.82-41.11Q38.23-42.41 38.12-47.02Q38.02-51.62 32.87-54.61Q27.72-57.60 20.81-57.60L20.81-57.60Q14.76-57.60 9.79-55.22L9.79-55.22Q7.27-57.31 4.68-57.31L4.68-57.31Q2.02-57.31 0-55.44L0-55.44Q2.88-49.18 2.88-41.18L2.88-41.18Q2.88-32.83 0-28.87L0-28.87Q2.88-24.98 2.88-16.56L2.88-16.56Q2.88-8.57 0-2.30L0-2.30Q2.02-0.50 4.68-0.50L4.68-0.50Q7.27-0.50 9.79-2.59L9.79-2.59Q15.12 0 21.17 0L21.17 0Q27.65 0 32.44-2.92Q37.22-5.83 38.02-10.80L38.02-10.80L38.02-11.74Q38.09-13.10 38.38-14.18L38.38-14.18Q39.10-16.78 40.82-17.64L40.82-17.64Q38.23-18.94 38.02-23.54ZM24.26-39.82L24.26-39.82Q25.99-37.94 25.99-36.14L25.99-36.14Q25.99-34.42 24.52-33.30Q23.04-32.18 21.10-32.18L21.10-32.18Q18.72-32.18 17.06-33.91L17.06-33.91Q15.19-35.93 15.19-39.82L15.19-39.82Q15.19-43.63 17.06-45.65L17.06-45.65Q18.72-47.38 21.10-47.38L21.10-47.38Q23.04-47.38 24.52-46.26Q25.99-45.14 25.99-43.42L25.99-43.42Q25.99-41.62 24.26-39.82ZM15.19-17.86L15.19-17.86Q15.19-22.25 17.14-24.62L17.14-24.62Q18.79-26.64 21.31-26.64L21.31-26.64Q23.33-26.64 24.84-25.34Q26.35-24.05 26.35-22.03L26.35-22.03Q26.35-20.02 24.55-17.86L24.55-17.86Q26.35-15.70 26.35-13.61L26.35-13.61Q26.35-11.66 24.84-10.33Q23.33-9.00 21.31-9.00L21.31-9.00Q18.79-9.00 17.14-11.02L17.14-11.02Q15.19-13.39 15.19-17.86Z"/>
  </g>
</svg>