<?xml version="1.0" standalone="no"?>
<!DOCTYPE svg PUBLIC "-//W3C//DTD SVG 1.1//EN" "http://www.w3.org/Graphics/SVG/1.1/DTD/svg11.dtd">
<svg xmlns="http://www.w3.org/2000/svg" viewBox="-10 -67.60000000000001 60.824000000000005 77.60000000000001">
  <g >
    <path d="M38.02-34.78L38.02-34.78L38.02-47.02Q38.02-51.62 32.87-54.61Q27.72-57.60 20.81-57.60L20.81-57.60Q14.76-57.60 9.79-55.22L9.79-55.22Q7.27-57.31 4.68-57.31L4.68-57.31Q2.02-57.31 0-55.44L0-55.44Q2.88-49.18 2.88-41.18L2.88-41.18Q2.88-32.83 0-28.87L0-28.87Q2.88-24.98 2.88-16.56L2.88-16.56Q2.88-8.57 0-2.30L0-2.30Q2.02-0.50 4.68-0.50L4.68-0.50Q7.27-0.50 9.79-2.59L9.79-2.59Q15.12 0 21.17 0L21.17 0Q27.65 0 32.44-2.92Q37.22-5.83 38.02-10.80L38.02-10.80L38.02-22.97Q38.09-24.34 38.38-25.42L38.38-25.42Q39.10-28.01 40.82-28.87L40.82-28.87Q38.23-30.24 38.02-34.78ZM26.50-41.47L26.50-35.14Q26.50-33.84 26.21-32.69L26.21-32.69Q25.49-30.10 23.69-29.23L23.69-29.23Q26.35-27.94 26.50-23.33L26.50-23.33L26.50-15.05Q26.50-11.95 24.80-10.37Q23.11-8.78 20.74-8.78L20.74-8.78Q18.50-8.78 16.81-10.12Q15.12-11.45 15.12-13.68L15.12-13.68L15.12-23.33Q15.19-24.70 15.48-25.78L15.48-25.78Q16.20-28.37 18.00-29.23L18.00-29.23Q15.34-30.53 15.12-35.14L15.12-35.14L15.12-42.91Q15.12-45.07 16.85-46.51L16.85-46.51Q18.50-47.74 20.74-47.74L20.74-47.74Q23.11-47.74 24.70-46.30L24.70-46.30Q26.50-44.57 26.50-41.47L26.50-41.47Z"/>
  </g>
</svg>