<?xml version="1.0" standalone="no"?>
<!DOCTYPE svg PUBLIC "-//W3C//DTD SVG 1.1//EN" "http://www.w3.org/Graphics/SVG/1.1/DTD/svg11.dtd">
<svg xmlns="http://www.w3.org/2000/svg" viewBox="-10 -67.60000000000001 54.055982421875 77.60000000000001">
  <g >
    <path d="M29.52-22.39L29.52-22.39Q29.95-23.40 29.95-24.62L29.95-24.62Q29.95-27.00 28.15-28.80L28.15-28.80Q29.95-30.60 29.95-32.98L29.95-32.98Q29.95-34.20 29.52-35.21L29.52-35.21Q25.99-31.68 21.67-31.68L21.67-31.68Q19.01-31.68 17.24-33.30Q15.48-34.92 15.48-37.87L15.48-37.87L15.48-41.98Q15.48-47.59 21.24-47.59L21.24-47.59Q24.19-47.59 27.04-46.04Q29.88-44.50 30.60-42.41L30.60-42.41Q33.62-44.64 33.62-48.46L33.62-48.46Q33.62-50.40 32.90-52.13L32.90-52.13Q34.34-52.78 33.98-56.59L33.98-56.59Q32.11-55.58 29.16-55.58L29.16-55.58Q27.22-55.58 25.34-56.02Q23.47-56.45 21.60-57.02L21.60-57.02Q19.30-57.60 17.50-57.60L17.50-57.60Q13.82-57.60 9.86-55.30L9.86-55.30Q7.34-57.38 4.68-57.38L4.68-57.38Q2.09-57.38 0-55.51L0-55.51Q2.95-49.25 2.95-41.18L2.95-41.18Q2.95-32.76 0-28.80L0-28.80Q2.95-24.84 2.95-16.42L2.95-16.42Q2.95-8.35 0-2.09L0-2.09Q2.09-0.22 4.68-0.22L4.68-0.22Q7.34-0.22 9.86-2.30L9.86-2.30Q13.82 0 17.50 0L17.50 0Q19.30 0 21.60-0.58L21.60-0.58Q23.47-1.15 25.34-1.58Q27.22-2.02 29.16-2.02L29.16-2.02Q32.11-2.02 33.98-1.01L33.98-1.01Q34.34-4.82 32.90-5.47L32.90-5.47Q33.62-7.20 33.62-9.14L33.62-9.14Q33.62-12.96 30.60-15.19L30.60-15.19Q29.88-13.10 27.04-11.56Q24.19-10.01 21.24-10.01L21.24-10.01Q15.48-10.01 15.48-15.62L15.48-15.62L15.48-19.73Q15.48-22.68 17.28-24.41L17.28-24.41Q19.01-25.92 21.67-25.92L21.67-25.92Q25.99-25.92 29.52-22.39Z"/>
  </g>
</svg>