<?xml version="1.0" standalone="no"?>
<!DOCTYPE svg PUBLIC "-//W3C//DTD SVG 1.1//EN" "http://www.w3.org/Graphics/SVG/1.1/DTD/svg11.dtd">
<svg xmlns="http://www.w3.org/2000/svg" viewBox="-10 -67.60000000000001 54.19721386718751 77.60000000000001">
  <g >
    <path d="M9.29-2.09L9.29-2.09Q6.98 0 4.54 0L4.54 0Q2.02 0 0-1.87L0-1.87Q2.95-8.21 2.95-16.27L2.95-16.27Q2.95-24.70 0-28.66L0-28.66Q2.95-32.62 2.95-41.11L2.95-41.11Q2.95-49.18 0-55.51L0-55.51Q2.09-57.38 4.68-57.38L4.68-57.38Q7.34-57.38 9.86-55.30L9.86-55.30Q13.90-57.60 17.57-57.60L17.57-57.60Q19.37-57.60 21.67-56.95L21.67-56.95Q23.54-56.45 25.42-56.02Q27.29-55.58 29.23-55.58L29.23-55.58Q32.26-55.58 34.13-56.59L34.13-56.59Q34.49-52.78 32.98-52.13L32.98-52.13Q33.70-50.33 33.70-48.38L33.70-48.38Q33.70-44.64 30.74-42.34L30.74-42.34Q29.95-44.42 27.11-46.01Q24.26-47.59 21.38-47.59L21.38-47.59Q15.55-47.59 15.55-41.90L15.55-41.90L15.55-37.73Q15.55-34.78 17.32-33.19Q19.08-31.61 21.74-31.61L21.74-31.61Q26.14-31.61 29.66-35.14L29.66-35.14Q30.10-34.06 30.10-32.83L30.10-32.83Q30.10-30.53 28.30-28.66L28.30-28.66Q30.10-26.86 30.10-24.48L30.10-24.48Q30.10-23.26 29.66-22.25L29.66-22.25Q25.85-26.06 21.46-26.06L21.46-26.06Q15.55-26.06 15.55-19.58L15.55-19.58Q15.55-12.38 15.70-10.58L15.70-10.58Q16.27-4.18 18.58-1.87L18.58-1.87Q16.49 0 14.04 0L14.04 0Q11.52 0 9.29-2.09Z"/>
  </g>
</svg>