<?xml version="1.0" standalone="no"?>
<!DOCTYPE svg PUBLIC "-//W3C//DTD SVG 1.1//EN" "http://www.w3.org/Graphics/SVG/1.1/DTD/svg11.dtd">
<svg xmlns="http://www.w3.org/2000/svg" viewBox="-10 -67.60000000000001 61.400000000000006 77.60000000000001">
  <g >
    <path d="M25.78-37.94L25.78-37.94Q25.78-33.70 22.75-32.54L22.75-32.54Q21.60-32.26 20.66-32.26L20.66-32.26Q19.80-32.26 18.58-32.54L18.58-32.54Q15.62-33.70 15.62-37.94L15.62-37.94Q15.62-45.22 15.77-46.94L15.77-46.94Q16.34-53.42 18.65-55.73L18.65-55.73Q16.56-57.60 14.11-57.60L14.11-57.60Q11.59-57.60 9.29-55.51L9.29-55.51Q7.06-57.60 4.54-57.60L4.54-57.60Q2.09-57.60 0-55.73L0-55.73Q2.95-49.39 2.95-41.26L2.95-41.26Q2.95-32.76 0-28.80L0-28.80Q2.95-24.84 2.95-16.34L2.95-16.34Q2.95-8.21 0-1.87L0-1.87Q2.09 0 4.54 0L4.54 0Q7.06 0 9.29-2.09L9.29-2.09Q11.59 0 14.11 0L14.11 0Q16.56 0 18.65-1.87L18.65-1.87Q16.34-4.18 15.77-10.66L15.77-10.66Q15.62-12.38 15.62-19.66L15.62-19.66Q15.62-23.90 18.58-25.06L18.58-25.06Q19.80-25.34 20.66-25.34L20.66-25.34Q21.60-25.34 22.75-25.06L22.75-25.06Q25.78-23.90 25.78-19.66L25.78-19.66Q25.78-12.38 25.63-10.66L25.63-10.66Q25.06-4.18 22.75-1.87L22.75-1.87Q24.77 0 27.29 0L27.29 0Q29.81 0 32.04-2.09L32.04-2.09Q34.34 0 36.79 0L36.79 0Q39.31 0 41.40-1.87L41.40-1.87Q38.45-8.21 38.45-16.34L38.45-16.34Q38.45-24.84 41.40-28.80L41.40-28.80Q38.45-32.76 38.45-41.26L38.45-41.26Q38.45-49.39 41.40-55.73L41.40-55.73Q39.31-57.60 36.79-57.60L36.79-57.60Q34.34-57.60 32.04-55.51L32.04-55.51Q29.81-57.60 27.29-57.60L27.29-57.60Q24.77-57.60 22.75-55.73L22.75-55.73Q25.06-53.42 25.63-46.94L25.63-46.94Q25.78-45.22 25.78-37.94Z"/>
  </g>
</svg>