<?xml version="1.0" standalone="no"?>
<!DOCTYPE svg PUBLIC "-//W3C//DTD SVG 1.1//EN" "http://www.w3.org/Graphics/SVG/1.1/DTD/svg11.dtd">
<svg xmlns="http://www.w3.org/2000/svg" viewBox="-10 -67.60000000000001 58.952000000000005 77.60000000000001">
  <g >
    <path d="M36.07-35.06L36.07-41.33Q36.07-52.99 38.81-55.73L38.81-55.73Q36.79-57.60 34.20-57.60L34.20-57.60Q31.54-57.60 29.02-55.51L29.02-55.51Q26.28-57.31 23.98-57.31L23.98-57.31Q21.60-57.31 18.50-55.44L18.50-55.44Q22.03-51.91 22.75-50.40L22.75-50.40Q24.26-47.38 24.26-40.97L24.26-40.97L24.26-35.06Q24.19-33.70 23.90-32.62L23.90-32.62Q23.18-30.02 21.38-29.09L21.38-29.09Q24.05-27.79 24.26-23.18L24.26-23.18L24.26-17.21Q24.26-13.61 23.26-12.17L23.26-12.17Q21.96-10.22 18.36-10.22L18.36-10.22L18.00-10.22Q15.91-10.22 14.47-11.70Q13.03-13.18 13.03-15.55L13.03-15.55Q13.03-18.43 15.12-21.53L15.12-21.53Q14.11-22.61 11.45-22.61L11.45-22.61Q7.78-22.61 6.55-20.09L6.55-20.09Q4.90-21.24 3.17-21.24L3.17-21.24Q1.30-21.24 0-19.73L0-19.73Q2.02-17.93 1.58-13.46L1.58-13.46Q1.94-9.58 3.53-6.77L3.53-6.77Q7.34 0 16.92 0L16.92 0Q18.07 0 19.30-0.07L19.30-0.07Q24.19-0.43 27.72-1.94L27.72-1.94Q36.14-5.62 36.14-14.83L36.14-14.83Q36.14-15.84 36.07-16.85L36.07-16.85L36.07-23.18Q36.14-24.55 36.43-25.63L36.43-25.63Q37.15-28.22 38.95-29.09L38.95-29.09Q36.29-30.46 36.07-35.06L36.07-35.06Z"/>
  </g>
</svg>