<?xml version="1.0" standalone="no"?>
<!DOCTYPE svg PUBLIC "-//W3C//DTD SVG 1.1//EN" "http://www.w3.org/Graphics/SVG/1.1/DTD/svg11.dtd">
<svg xmlns="http://www.w3.org/2000/svg" viewBox="-10 -67.60000000000001 62.76800000000001 77.60000000000001">
  <g >
    <path d="M26.35-31.03L26.35-31.03Q27.29-29.45 29.45-27.65L29.45-27.65Q31.32-26.14 32.40-25.70L32.40-25.70Q32.76-20.74 35.50-13.61L35.50-13.61Q38.74-5.40 42.77-1.87L42.77-1.87Q40.90 0 38.45 0L38.45 0Q35.28 0 33.41-1.87L33.41-1.87Q30.67-0.14 28.37-0.14L28.37-0.14Q26.14-0.14 24.41-1.87L24.41-1.87Q26.21-5.26 26.21-7.70L26.21-7.70Q26.21-9.94 23.40-14.76L23.40-14.76L17.14-25.78Q15.70-21.82 15.70-16.27L15.70-16.27Q15.70-8.21 18.65-1.87L18.65-1.87Q16.56 0 14.11 0L14.11 0Q11.59 0 9.29-2.09L9.29-2.09Q7.06 0 4.54 0L4.54 0Q2.09 0 0-1.87L0-1.87Q2.95-8.21 2.95-16.34L2.95-16.34Q2.95-24.84 0-28.80L0-28.80Q2.95-32.76 2.95-41.26L2.95-41.26Q2.95-49.39 0-55.73L0-55.73Q2.09-57.60 4.54-57.60L4.54-57.60Q7.06-57.60 9.29-55.51L9.29-55.51Q11.59-57.60 14.11-57.60L14.11-57.60Q16.56-57.60 18.65-55.73L18.65-55.73Q15.70-49.39 15.70-41.33L15.70-41.33Q15.70-36.58 16.78-32.83L16.78-32.83L22.46-43.63Q23.47-45.58 24.48-47.48Q25.49-49.39 25.49-50.90L25.49-50.90Q25.49-53.06 23.62-55.73L23.62-55.73Q25.34-57.46 27.58-57.46L27.58-57.46Q29.88-57.46 32.62-55.73L32.62-55.73Q34.49-57.60 36.94-57.60L36.94-57.60Q39.17-57.60 40.97-55.73L40.97-55.73Q37.01-52.99 35.93-49.75L35.93-49.75Q35.21-47.66 35.21-42.05L35.21-42.05Q32.98-40.61 31.32-39.02L31.32-39.02Q27.22-35.21 26.35-31.03Z"/>
  </g>
</svg>