<?xml version="1.0" standalone="no"?>
<!DOCTYPE svg PUBLIC "-//W3C//DTD SVG 1.1//EN" "http://www.w3.org/Graphics/SVG/1.1/DTD/svg11.dtd">
<svg xmlns="http://www.w3.org/2000/svg" viewBox="-10 -67.60000000000001 53.39225000000001 77.60000000000001">
  <g >
    <path d="M31.75-5.47L31.75-5.47Q32.40-7.27 32.40-9.22L32.40-9.22Q32.40-13.18 29.38-15.77L29.38-15.77Q28.22-13.25 25.63-11.56Q23.04-9.86 20.59-9.86L20.59-9.86Q15.77-9.86 15.62-15.41L15.62-15.41Q15.41-24.62 18.58-28.94L18.58-28.94Q15.62-32.90 15.62-41.33L15.62-41.33Q15.62-49.39 18.58-55.73L18.58-55.73Q16.49-57.60 14.04-57.60L14.04-57.60Q11.52-57.60 9.29-55.51L9.29-55.51Q6.98-57.60 4.54-57.60L4.54-57.60Q2.02-57.60 0-55.73L0-55.73L1.15-52.85Q3.10-47.81 3.10-41.62L3.10-41.62Q3.10-33.12 0-28.94L0-28.94Q2.95-24.98 2.95-16.49L2.95-16.49Q2.95-8.42 0-2.09L0-2.09Q2.02-0.22 4.54-0.22L4.54-0.22Q6.98-0.22 9.29-2.30L9.29-2.30Q13.32 0 17.21 0L17.21 0Q19.15 0 21.53-0.58L21.53-0.58Q23.47-1.15 25.42-1.66L25.42-1.66Q26.78-1.94 28.30-1.94L28.30-1.94Q31.68-1.94 33.34-0.29L33.34-0.29Q33.70-4.18 31.75-5.47Z"/>
  </g>
</svg>