<?xml version="1.0" standalone="no"?>
<!DOCTYPE svg PUBLIC "-//W3C//DTD SVG 1.1//EN" "http://www.w3.org/Graphics/SVG/1.1/DTD/svg11.dtd">
<svg xmlns="http://www.w3.org/2000/svg" viewBox="-10 -67.60000000000001 61.040000000000006 77.60000000000001">
  <g >
    <path d="M26.57-23.11L26.57-17.21Q26.57-13.97 24.84-12.20Q23.11-10.44 20.74-10.44L20.74-10.44Q18.43-10.44 16.70-12.20Q14.98-13.97 14.98-17.21L14.98-17.21L14.98-23.11Q15.05-24.41 15.34-25.49L15.34-25.49Q16.06-28.08 17.93-28.94L17.93-28.94Q15.19-30.24 14.98-34.78L14.98-34.78L14.98-40.68Q14.98-43.85 16.70-45.65Q18.43-47.45 20.74-47.45L20.74-47.45Q23.11-47.45 24.84-45.65Q26.57-43.85 26.57-40.68L26.57-40.68L26.57-34.78Q26.50-33.48 26.21-32.40L26.21-32.40Q25.49-29.81 23.62-28.94L23.62-28.94Q26.35-27.65 26.57-23.11L26.57-23.11ZM38.09-16.56L38.09-16.56L38.09-23.11Q38.16-24.41 38.45-25.49L38.45-25.49Q39.24-28.08 41.04-28.94L41.04-28.94Q38.30-30.24 38.09-34.78L38.09-34.78L38.09-41.04Q38.09-51.19 29.30-55.44L29.30-55.44Q25.63-57.17 20.52-57.60L20.52-57.60Q15.41-57.17 11.74-55.44L11.74-55.44Q2.95-51.19 2.95-41.04L2.95-41.04L2.95-34.78Q2.88-33.48 2.59-32.40L2.59-32.40Q1.80-29.81 0-28.94L0-28.94Q2.74-27.65 2.95-23.11L2.95-23.11L2.95-16.56Q2.95-6.05 11.74-1.94L11.74-1.94Q15.41-0.29 20.52 0L20.52 0Q25.56-0.43 29.23-2.16L29.23-2.16Q37.94-6.41 38.09-16.56Z"/>
  </g>
</svg>