<?xml version="1.0" standalone="no"?>
<!DOCTYPE svg PUBLIC "-//W3C//DTD SVG 1.1//EN" "http://www.w3.org/Graphics/SVG/1.1/DTD/svg11.dtd">
<svg xmlns="http://www.w3.org/2000/svg" viewBox="-10 -67.60000000000001 61.184000000000005 77.60000000000001">
  <g >
    <path d="M24.48-39.60L24.48-39.60Q26.21-37.73 26.21-35.93L26.21-35.93Q26.21-34.20 24.73-33.08Q23.26-31.97 21.31-31.97L21.31-31.97Q18.86-31.97 17.28-33.70L17.28-33.70Q15.34-35.78 15.34-39.60L15.34-39.60Q15.34-43.49 17.28-45.58L17.28-45.58Q18.86-47.30 21.31-47.30L21.31-47.30Q23.26-47.30 24.73-46.19Q26.21-45.07 26.21-43.27L26.21-43.27Q26.21-41.47 24.48-39.60ZM9.58-2.09L9.58-2.09Q11.95 0 14.54 0L14.54 0Q17.06 0 19.08-1.87L19.08-1.87Q15.05-6.62 15.05-15.19L15.05-15.19Q15.05-19.22 15.70-20.38L15.70-20.38Q17.28-23.26 23.11-23.26L23.11-23.26Q29.74-23.26 33.05-25.56L33.05-25.56Q37.94-27.22 38.30-34.99L38.30-34.99Q38.38-36.36 38.66-37.44L38.66-37.44Q39.38-40.03 41.18-40.97L41.18-40.97Q38.52-42.26 38.41-46.91Q38.30-51.55 33.12-54.58Q27.94-57.60 20.95-57.60L20.95-57.60Q14.83-57.60 9.86-55.22L9.86-55.22Q7.34-57.31 4.68-57.31L4.68-57.31Q2.09-57.31 0-55.44L0-55.44Q2.95-49.10 2.95-41.04L2.95-41.04Q2.95-32.62 0-28.66L0-28.66Q2.95-24.70 2.95-16.27L2.95-16.27Q2.95-8.14 0-1.87L0-1.87Q2.09 0 4.61 0L4.61 0Q7.20 0 9.58-2.09Z"/>
  </g>
</svg>