<?xml version="1.0" standalone="no"?>
<!DOCTYPE svg PUBLIC "-//W3C//DTD SVG 1.1//EN" "http://www.w3.org/Graphics/SVG/1.1/DTD/svg11.dtd">
<svg xmlns="http://www.w3.org/2000/svg" viewBox="-10 -67.60000000000001 59.312000000000005 77.60000000000001">
  <g >
    <path d="M33.12-47.88L33.12-47.88Q35.35-50.33 35.35-52.99L35.35-52.99Q35.35-53.64 35.21-54.29L35.21-54.29Q32.98-54.00 31.82-54.00L31.82-54.00Q30.60-54.00 29.74-54.50Q28.87-55.01 27.94-55.58L27.94-55.58Q23.83-57.60 19.73-57.60L19.73-57.60Q12.74-57.60 7.78-52.34L7.78-52.34Q3.10-47.30 3.10-40.82L3.10-40.82Q3.10-32.54 10.87-28.08L10.87-28.08Q14.76-26.71 15.12-21.60L15.12-21.60Q16.70-22.10 18.58-22.10L18.58-22.10Q22.25-22.10 24.70-20.02L24.70-20.02Q27.29-17.06 27.29-14.47L27.29-14.47Q27.29-11.95 24.95-10.44Q22.61-8.93 19.08-8.93L19.08-8.93Q14.76-8.93 10.80-11.16L10.80-11.16Q6.19-13.68 3.53-18.43L3.53-18.43Q2.09-15.41 2.09-12.82L2.09-12.82Q2.09-10.80 3.02-9.58L3.02-9.58Q0-7.78 0-3.53L0-3.53Q0-2.74 0.14-1.94L0.14-1.94Q2.59-3.67 4.54-3.67L4.54-3.67Q5.76-3.67 7.49-2.81L7.49-2.81Q9.72-1.66 10.73-1.37L10.73-1.37Q15.70 0 20.16 0L20.16 0Q29.09 0 34.49-5.18L34.49-5.18Q39.31-9.94 39.31-16.63L39.31-16.63Q39.31-25.78 31.10-30.24L31.10-30.24Q29.38-31.25 28.08-32.26L28.08-32.26Q24.98-34.70 24.41-36.94L24.41-36.94Q23.04-36.29 21.38-36.29L21.38-36.29Q18.50-36.29 16.13-38.30L16.13-38.30Q14.33-40.46 14.33-42.84L14.33-42.84Q14.33-45.36 16.20-47.16Q18.07-48.96 20.81-48.96L20.81-48.96Q26.57-48.96 30.53-41.26L30.53-41.26Q33.12-44.14 33.12-47.88Z"/>
  </g>
</svg>