<?xml version="1.0" standalone="no"?>
<!DOCTYPE svg PUBLIC "-//W3C//DTD SVG 1.1//EN" "http://www.w3.org/Graphics/SVG/1.1/DTD/svg11.dtd">
<svg xmlns="http://www.w3.org/2000/svg" viewBox="-10 -67.60000000000001 65.36000000000001 77.60000000000001">
  <g >
    <path d="M43.85-49.61L43.85-49.61Q45.29-51.05 45.29-53.42L45.29-53.42Q45.29-55.66 43.85-57.60L43.85-57.60Q39.24-55.44 33.26-55.44L33.26-55.44Q27.94-55.44 22.68-57.46L22.68-57.46Q17.42-55.44 12.02-55.44L12.02-55.44Q6.12-55.44 1.51-57.60L1.51-57.60Q0.07-55.66 0.07-53.42L0.07-53.42Q0.07-51.05 1.51-49.61L1.51-49.61Q0-46.80 0-44.28L0-44.28Q0-41.90 1.51-40.32L1.51-40.32Q8.21-43.78 12.60-43.78L12.60-43.78Q15.26-43.78 16.42-42.62L16.42-42.62Q16.63-33.34 13.46-29.02L13.46-29.02Q16.42-25.06 16.42-16.49L16.42-16.49Q16.42-8.28 13.46-1.87L13.46-1.87Q15.55 0 18.07 0L18.07 0Q20.59 0 22.90-2.16L22.90-2.16Q25.20 0 27.65 0L27.65 0Q30.17 0 32.26-1.87L32.26-1.87Q29.30-8.28 29.30-16.49L29.30-16.49Q29.30-25.06 32.26-29.02L32.26-29.02Q29.02-33.48 29.30-42.98L29.30-42.98Q30.60-43.78 32.76-43.78L32.76-43.78Q37.15-43.78 43.85-40.32L43.85-40.32Q45.36-41.90 45.36-44.28L45.36-44.28Q45.36-46.80 43.85-49.61Z"/>
  </g>
</svg>