<?xml version="1.0" standalone="no"?>
<!DOCTYPE svg PUBLIC "-//W3C//DTD SVG 1.1//EN" "http://www.w3.org/Graphics/SVG/1.1/DTD/svg11.dtd">
<svg xmlns="http://www.w3.org/2000/svg" viewBox="-10 -67.60000000000001 94.66400000000002 77.60000000000001">
  <g >
    <path d="M37.37-55.44L37.37-55.44Q39.53-57.24 42.34-57.24L42.34-57.24Q44.57-57.24 46.44-56.23L46.44-56.23Q44.28-51.98 44.28-47.09L44.28-47.09Q44.28-40.46 48.10-36.65L48.10-36.65Q47.02-34.20 47.02-30.46L47.02-30.46Q47.02-23.47 49.97-20.45L49.97-20.45Q51.62-22.10 52.60-25.27Q53.57-28.44 53.57-31.68L53.57-31.68Q53.57-34.70 52.70-36.65L52.70-36.65Q57.02-40.97 57.02-48.10L57.02-48.10Q57.02-52.56 55.15-56.23L55.15-56.23Q56.52-57.60 59.04-57.60L59.04-57.60Q61.92-57.60 64.30-55.22L64.30-55.22Q66.53-57.60 69.26-57.60L69.26-57.60Q72.07-57.60 74.66-55.22L74.66-55.22Q70.20-49.39 68.33-45.07L68.33-45.07Q66.10-40.10 66.10-34.56L66.10-34.56Q66.10-32.11 66.53-29.30L66.53-29.30Q63.50-28.08 60.12-21.31L60.12-21.31Q56.52-14.04 56.52-7.85L56.52-7.85Q56.52-3.96 58.18-1.44L58.18-1.44Q55.80 0 53.42 0L53.42 0Q50.90 0 49.18-1.73L49.18-1.73Q47.45 0 45.00 0L45.00 0Q42.62 0 40.25-1.44L40.25-1.44Q42.55-5.04 42.55-9.07L42.55-9.07Q42.55-11.59 40.39-18.22L40.39-18.22L37.37-27.72L34.27-18.22Q32.18-11.59 32.18-9.07L32.18-9.07Q32.18-5.04 34.49-1.44L34.49-1.44Q32.04 0 29.66 0L29.66 0Q27.22 0 25.49-1.73L25.49-1.73Q23.76 0 21.24 0L21.24 0Q18.86 0 16.49-1.44L16.49-1.44Q18.14-3.96 18.14-7.85L18.14-7.85Q18.14-14.04 14.54-21.31L14.54-21.31Q11.23-28.08 8.21-29.30L8.21-29.30Q8.57-32.11 8.57-34.56L8.57-34.56Q8.57-40.10 6.41-45.07L6.41-45.07Q4.46-49.39 0-55.22L0-55.22Q2.59-57.60 5.47-57.60L5.47-57.60Q8.14-57.60 10.44-55.22L10.44-55.22Q12.74-57.60 15.62-57.60L15.62-57.60Q18.14-57.60 19.58-56.23L19.58-56.23Q17.64-52.56 17.64-48.10L17.64-48.10Q17.64-40.97 21.96-36.65L21.96-36.65Q21.10-34.70 21.10-31.68L21.10-31.68Q21.10-28.44 22.10-25.27Q23.11-22.10 24.70-20.45L24.70-20.45Q27.65-23.47 27.65-30.46L27.65-30.46Q27.65-34.20 26.57-36.65L26.57-36.65Q30.46-40.46 30.46-47.09L30.46-47.09Q30.46-51.98 28.22-56.23L28.22-56.23Q30.17-57.24 32.33-57.24L32.33-57.24Q35.14-57.24 37.37-55.44Z"/>
  </g>
</svg>