<?xml version="1.0" standalone="no"?>
<!DOCTYPE svg PUBLIC "-//W3C//DTD SVG 1.1//EN" "http://www.w3.org/Graphics/SVG/1.1/DTD/svg11.dtd">
<svg xmlns="http://www.w3.org/2000/svg" viewBox="-10 -67.60000000000001 66.87200000000001 77.60000000000001">
  <g >
    <path d="M24.70-40.75L24.70-40.75Q19.73-47.52 19.73-50.90L19.73-50.90Q19.73-52.70 20.88-55.37L20.88-55.37Q19.01-57.38 16.56-57.38L16.56-57.38Q14.18-57.38 11.88-55.66L11.88-55.66Q9.72-57.60 7.42-57.60L7.42-57.60Q4.68-57.60 2.38-55.37L2.38-55.37Q5.40-52.42 6.05-51.12L6.05-51.12Q7.13-49.03 7.13-45.00L7.13-45.00Q7.13-43.78 7.06-42.19L7.06-42.19Q9.00-41.11 10.66-39.53L10.66-39.53Q14.69-35.78 16.70-30.46L16.70-30.46Q13.39-20.59 5.76-16.06L5.76-16.06Q6.41-14.62 6.41-12.96L6.41-12.96Q6.41-9.72 4.43-6.44Q2.45-3.17 0-1.73L0-1.73Q2.38-0.07 4.97-0.07L4.97-0.07Q7.42-0.07 9.29-1.73L9.29-1.73Q11.95 0 14.33 0L14.33 0Q16.70 0 18.43-1.73L18.43-1.73Q16.70-4.97 16.70-7.63L16.70-7.63Q16.70-10.15 18.29-13.25L18.29-13.25Q18.86-14.26 22.32-19.73L22.32-19.73Q25.78-14.26 26.28-13.25L26.28-13.25Q27.94-10.15 27.94-7.63L27.94-7.63Q27.94-4.97 26.14-1.73L26.14-1.73Q29.52-0.14 31.39-0.14L31.39-0.14Q33.19-0.14 36.58-1.73L36.58-1.73Q39.24-0.07 41.98-0.07L41.98-0.07Q45.22-0.07 46.87-1.73L46.87-1.73Q43.56-5.04 42.41-7.06L42.41-7.06Q41.18-9.36 41.18-12.38L41.18-12.38Q41.18-13.82 41.40-15.84L41.40-15.84Q38.81-17.42 36.79-19.37L36.79-19.37Q31.90-24.05 30.82-30.02L30.82-30.02Q32.26-34.27 33.48-36.14L33.48-36.14Q35.42-38.95 39.82-42.05L39.82-42.05Q39.67-42.98 39.67-43.99L39.67-43.99Q39.67-47.74 41.69-51.41L41.69-51.41Q43.27-54.43 44.93-55.37L44.93-55.37Q42.62-57.53 40.18-57.53L40.18-57.53Q38.09-57.53 36.43-55.66L36.43-55.66Q33.91-57.46 31.75-57.46L31.75-57.46Q29.59-57.46 28.58-55.37L28.58-55.37Q29.74-52.70 29.74-50.90L29.74-50.90Q29.74-47.52 24.70-40.75Z"/>
  </g>
</svg>