<?xml version="1.0" standalone="no"?>
<!DOCTYPE svg PUBLIC "-//W3C//DTD SVG 1.1//EN" "http://www.w3.org/Graphics/SVG/1.1/DTD/svg11.dtd">
<svg xmlns="http://www.w3.org/2000/svg" viewBox="-10 -67.60000000000001 55.9824921875 77.60000000000001">
  <g >
    <path d="M17.86-46.80L17.86-46.80Q15.41-32.98 9.58-31.32L9.58-31.32Q10.30-30.10 10.30-28.01L10.30-28.01Q10.30-23.40 7.20-15.77L7.20-15.77Q4.25-8.57 0-2.09L0-2.09Q2.02-0.22 4.61-0.22L4.61-0.22Q7.13-0.22 9.50-2.30L9.50-2.30Q13.46 0 17.57 0L17.57 0Q19.66 0 22.18-0.58L22.18-0.58Q24.19-1.15 26.14-1.58Q28.08-2.02 30.24-2.02L30.24-2.02Q33.48-2.02 35.93-1.01L35.93-1.01Q36.29-4.82 34.27-5.26L34.27-5.26Q35.14-7.27 35.14-9.36L35.14-9.36Q35.14-12.96 32.69-15.19L32.69-15.19Q31.75-12.60 28.87-11.16L28.87-11.16Q26.28-9.79 22.97-9.79L22.97-9.79Q20.23-9.79 18.07-10.80L18.07-10.80Q18.65-16.56 20.81-21.67L20.81-21.67Q23.33-27.65 27.07-29.59L27.07-29.59Q26.57-30.96 26.57-32.76L26.57-32.76Q26.57-40.75 35.93-55.51L35.93-55.51Q33.91-57.38 31.39-57.38L31.39-57.38Q28.87-57.38 26.50-55.30L26.50-55.30Q22.46-57.60 18.36-57.60L18.36-57.60Q16.34-57.60 13.75-57.02L13.75-57.02Q11.74-56.45 9.83-56.02Q7.92-55.58 5.76-55.58L5.76-55.58Q2.45-55.58 0-56.59L0-56.59Q-0.36-52.78 1.66-52.34L1.66-52.34Q0.86-50.33 0.86-48.24L0.86-48.24Q0.86-44.64 3.31-42.41L3.31-42.41Q4.18-45.00 7.06-46.44L7.06-46.44Q9.72-47.81 12.96-47.81L12.96-47.81Q15.77-47.81 17.86-46.80Z"/>
  </g>
</svg>