<svg width="718" height="718" version="1.1" xmlns="http://www.w3.org/2000/svg"><path d="m635 116c0.708 0.238 1.42 0.477 2.15 0.722 30 10.2 55.7 26.7 70.7 55.3 3.12 6.5 5.41 13 7.19 20 0.226 0.831 0.451 1.66 0.684 2.52 4.68 20.5 0.921 43.6-7.68 62.5-0.452 1.01-0.905 2.03-1.37 3.07-11.8 25.1-33.1 42.9-58.9 52.3-1.58 0.549-3.16 1.09-4.75 1.62 3.24 3.8 6.53 7.54 10 11.1 15.4 15.9 26.1 34 32.4 55.4 0.34 1.15 0.34 1.15 0.687 2.33 4.05 14.9 5.42 29.9 5.27 45.2-0.0238 2.63-0.0205 5.25-0.0139 7.88-0.0222 14-1.15 27.7-4.51 41.4-0.323 1.32-0.323 1.32-0.652 2.66-7.2 28.3-21.3 53.7-41.8 74.6-1.31 1.34-2.6 2.7-3.88 4.06-6.61 6.88-13.9 12.7-21.5 18.4-0.557 0.412-1.11 0.824-1.69 1.25-21.4 15.6-45.4 25.7-70.9 32.1-1.45 0.364-1.45 0.364-2.92 0.736-17.9 4.21-35.9 4.36-54.2 4.33-1.22-2.1e-4 -2.43-4.2e-4 -3.69-6.4e-4 -18.5-0.0322-36.3-0.824-54.6-4.37-0.99-0.177-1.98-0.353-3-0.535-28.5-5.11-58.6-14.9-82-32.5-0.779-0.571-1.56-1.14-2.36-1.73-13.9-10.5-25.4-22.5-34.6-37.3-0.496 1.02-0.993 2.03-1.5 3.08-14.7 29.8-33.7 52.1-65.5 63.9-14.9 5.09-29.4 6.32-45.1 6.3-1.73 4e-3 -3.45 8e-3 -5.18 0.013-3.6 7e-3 -7.21 7e-3 -10.8 2e-3 -3.65-5e-3 -7.31 2e-3 -11 0.0205-38.1 0.188-72.8-1.49-102-29.1-23.4-24.6-28.3-57-32.1-89.3-0.31-2.56-0.62-5.11-0.931-7.67-0.655-5.4-1.31-10.8-1.96-16.2-0.928-7.73-1.86-15.5-2.8-23.2-1.88-15.5-3.74-31-5.61-46.5-1.46-12.1-2.92-24.2-4.39-36.3-0.308-2.54-0.615-5.09-0.922-7.63-2.13-17.7-4.34-35.3-6.6-53-0.994-7.79-1.98-15.6-2.97-23.4-0.883-6.96-1.77-13.9-2.67-20.9-0.863-6.71-1.71-13.4-2.55-20.1-0.444-3.55-0.894-7.11-1.36-10.7-4.03-31-7.4-63.6 12-90.4 14.9-18.4 33.8-28.9 57.4-31.5 6.58-0.635 13.1-0.626 19.7-0.632 1.36-3e-3 2.71-7e-3 4.07-0.0101 2.83-6e-3 5.67-8e-3 8.5-7e-3 2.87 8e-5 5.74-7e-3 8.61-0.0205 59.5-0.28 59.5-0.28 80.7 20 19.1 19.3 22.9 45.3 25.6 71.1 0.132 1.22 0.263 2.45 0.399 3.71 0.724 7.17 1.09 14.2 0.914 21.4h2c0.0831-0.761 0.166-1.52 0.252-2.31 1.04-5.14 2.88-9.9 4.72-14.8 0.401-1.08 0.803-2.16 1.22-3.28 0.852-2.29 1.71-4.58 2.56-6.87 1.29-3.44 2.56-6.88 3.84-10.3 21-56.6 21-56.6 49.6-70.6 11.5-5.1 23.7-7.91 36.3-7.97 0.715-5e-3 1.43-0.01 2.17-0.0151 2.35-0.0145 4.7-0.0214 7.04-0.0269 0.811-3e-3 1.62-6e-3 2.46-9e-3 4.3-0.0149 8.6-0.0242 12.9-0.0285 4.39-6e-3 8.78-0.0294 13.2-0.058 3.42-0.0188 6.84-0.0238 10.3-0.0254 1.62-3e-3 3.23-0.0109 4.85-0.0242 21.7-0.166 43.6 3.2 59.7 19.1 3.75 3.88 3.75 3.88 4.94 6.25 3.28-1.26 6.34-2.66 9.41-4.36 56.1-30.6 127-30.9 187-10.6z" fill="#000000" style="fill:#0a0a0a"/><path d="m97.4 150c1.08-6e-3 1.08-6e-3 2.17-0.0123 3.79-0.0207 7.58-0.0351 11.4-0.0445 3.89-0.0111 7.77-0.0456 11.7-0.0852 3.02-0.0263 6.04-0.0345 9.05-0.0381 1.43-5e-3 2.86-0.0163 4.3-0.035 9.67-0.119 17.7 0.545 25.7 6.31 7.01 7.41 11.1 15.5 12.1 25.7 0.112 1.1 0.223 2.21 0.339 3.35 0.114 1.21 0.227 2.42 0.344 3.67 0.126 1.31 0.252 2.61 0.382 3.96 1.72 18.1 2.98 36.3 4.3 54.5 0.378 5.21 0.761 10.4 1.14 15.6 0.721 9.83 1.44 19.7 2.15 29.5 1.05 14.4 2.11 28.9 3.16 43.3 0.0779 1.06 0.156 2.13 0.236 3.22 0.155 2.12 0.311 4.24 0.466 6.36 0.452 6.17 0.902 12.3 1.35 18.5 0.279 3.83 0.559 7.67 0.839 11.5 0.129 1.77 0.258 3.54 0.386 5.3 0.862 15.9 0.862 15.9 3.16 31.6 3.37 0.14 3.37 0.14 7-1 3.83-6.46 6.18-13.6 8.72-20.6 0.45-1.24 0.901-2.47 1.36-3.75 1.22-3.36 2.44-6.72 3.66-10.1 1.28-3.55 2.58-7.1 3.87-10.6 2.12-5.82 4.23-11.6 6.34-17.5 2.78-7.67 5.57-15.3 8.35-23 0.415-1.14 0.83-2.28 1.26-3.46 0.824-2.27 1.65-4.53 2.47-6.8 1.23-3.37 2.45-6.75 3.68-10.1 8.38-23.1 16.8-46.1 25.2-69.1 0.698-1.91 1.4-3.81 2.09-5.72 3.8-10.4 7.61-20.7 11.5-31.1 0.999-2.69 1.99-5.39 2.98-8.08 1.33-3.63 2.68-7.26 4.04-10.9 0.56-1.54 0.56-1.54 1.13-3.12 3.71-9.81 9.82-19.3 19.5-24.1 10.3-3.75 21.6-3.12 32.3-3.17 0.729-4e-3 1.46-8e-3 2.21-0.0123 3.85-0.0207 7.7-0.0351 11.6-0.0445 3.95-0.0111 7.89-0.0456 11.8-0.0852 3.06-0.0263 6.13-0.0345 9.19-0.0381 1.45-5e-3 2.91-0.0163 4.36-0.035 9.62-0.116 18.3 0.292 26 6.64 0.608 0.744 1.22 1.49 1.84 2.25 0.629 0.741 1.26 1.48 1.91 2.25 4.41 6.42 4.51 12.8 3.59 20.3-0.911 2.62-1.86 5.08-2.98 7.61-0.644 1.51-1.29 3.02-1.93 4.53-0.341 0.792-0.683 1.58-1.03 2.4-1.81 4.23-3.55 8.49-5.3 12.7-0.754 1.83-1.51 3.66-2.26 5.48-0.386 0.934-0.771 1.87-1.17 2.83-0.396 0.959-0.792 1.92-1.2 2.91-0.411 0.995-0.822 1.99-1.25 3.02-4.41 10.7-8.83 21.4-13.3 32.1-0.522 1.26-0.522 1.26-1.05 2.54-0.518 1.25-0.518 1.25-1.05 2.52-8.48 20.4-16.9 40.9-25.2 61.3-3.82 9.36-7.65 18.7-11.5 28.1-0.492 1.2-0.492 1.2-0.993 2.42-4.75 11.6-9.55 23.1-14.4 34.7-5.03 12-9.99 24.1-14.9 36.2-0.462 1.14-0.462 1.14-0.933 2.31-0.308 0.763-0.617 1.53-0.935 2.31-6.18 15.3-12.4 30.5-18.7 45.8-2.01 4.87-4 9.75-5.99 14.6-18 44.1-18 44.1-29 56.6-0.634 0.82-1.27 1.64-1.92 2.48-10.8 13.1-27.6 19.6-44.1 21.5-10.2 0.636-20.4 0.58-30.6 0.521-3.98-0.0228-7.97-9e-3 -12 0.0138-50.1 0.246-50.1 0.246-65.7-14.7-0.574-0.596-1.15-1.19-1.74-1.8-0.543-0.534-1.09-1.07-1.64-1.62-9.46-10-12.9-24.9-14.7-38.2-0.125-0.897-0.251-1.79-0.38-2.72-1.86-13.6-3.49-27.1-5.14-40.7-0.498-4.08-0.998-8.17-1.5-12.3-0.952-7.78-1.9-15.6-2.85-23.3-1.15-9.45-2.31-18.9-3.46-28.3-0.414-3.39-0.828-6.77-1.24-10.2-0.102-0.835-0.204-1.67-0.309-2.53-0.722-5.9-1.44-11.8-2.16-17.7-2.62-21.4-5.23-42.8-7.86-64.2-0.0826-0.672-0.165-1.34-0.25-2.04-2.01-16.3-4.04-32.6-6.11-49-0.649-5.11-1.29-10.2-1.94-15.3-0.528-4.18-1.06-8.37-1.6-12.5-0.55-4.27-1.09-8.54-1.62-12.8-0.197-1.57-0.398-3.13-0.603-4.7-1.04-7.99-1.78-15.9-1.82-23.9-0.0059-0.686-0.0119-1.37-0.018-2.08 0.083-10.9 3.59-20.1 11.2-27.8 11.9-11.1 26.9-10.2 42.3-10.2z" fill="#fe1115"/><path d="m548 147c1 2.1e-4 2 4.2e-4 3.03 6.4e-4 15.8 0.0333 30.9 0.868 46.3 4.37 0.871 0.193 1.74 0.385 2.64 0.584 24 5.45 52.1 14.9 67.4 35.4 7.21 11.6 8.11 26.3 5.12 39.4-4.63 17-14.2 30.2-29.1 39.6-10.9 5.11-19.3 4.97-30.6 1.27-3.44-1.27-6.77-2.67-10.1-4.14-20.5-9.01-44.6-16.4-66.6-8.31-6.49 2.88-10.4 5.73-13 12.5-1.6 6.47-1.91 13.7 0.777 19.9 5.47 8.7 13 14.1 22.1 18.4 2.04 1.02 4.08 2.05 6.12 3.08 1.56 0.79 1.56 0.79 3.16 1.6 9.27 4.81 18.2 10.3 27.2 15.6 0.963 0.575 1.93 1.15 2.92 1.74 20.5 12.2 20.5 12.2 29.1 20.3 0.821 0.751 0.821 0.751 1.66 1.52 16.1 14.8 25.2 30.7 29.3 52.5 0.206 1.02 0.412 2.04 0.625 3.1 6.34 37.7-1.32 76.1-23.4 107-3.68 4.91-7.95 9.26-12.2 13.6-0.755 0.829-1.51 1.66-2.29 2.51-25.4 27.1-65.7 42.4-102 43.7-5.1 0.126-10.2 0.13-15.3 0.11-0.904-1e-3 -1.81-3e-3 -2.74-5e-3 -14.3-0.0424-28.3-0.779-42.4-3.31-0.857-0.145-1.71-0.289-2.6-0.438-31.9-5.44-70.3-17.4-90.2-45-8.2-13.1-11.5-27.4-8.86-42.8 4.24-18.1 14.5-34.7 30-45.2 9.86-6.11 18.1-7.46 29.6-6.62 3.37 0.842 6.04 2.19 9 4 0.847 0.498 1.69 0.995 2.57 1.51 4.95 3.03 9.52 6.33 14.1 9.93 18.1 13.7 42.6 21 65.2 18.1 10.5-2 18.1-5.52 24.2-14.5 2.63-5.49 3.01-11.4 1.35-17.3-6.3-15.7-21.2-21.9-35.7-28.3-35.7-15.8-69.7-41.2-84.5-78.5-1.66-4.56-2.97-9.17-4.16-13.9-0.245-0.944-0.49-1.89-0.742-2.86-6.78-32.1 4.03-66.4 21.2-93.5 22.6-34.5 58.6-56.2 98.6-64.7 0.815-0.185 1.63-0.371 2.47-0.562 10.3-2.05 20.7-1.83 31.2-1.81z" fill="#0573f0"/></svg>
