<?xml version="1.0" standalone="no"?>
<!DOCTYPE svg PUBLIC "-//W3C//DTD SVG 1.1//EN" "http://www.w3.org/Graphics/SVG/1.1/DTD/svg11.dtd">
<svg xmlns="http://www.w3.org/2000/svg" viewBox="-9.64 -60.760000000000005 67.88000000000001 70.76">
  <g >
    <path d="M48.02-37.58Q47.23-33.12 44.32-30.13Q41.40-27.14 37.37-26.06L37.37-26.06Q41.04-25.20 43.09-22.54Q45.14-19.87 45.14-16.20L45.14-16.20Q45.14-15.05 44.93-13.82L44.93-13.82Q43.85-7.34 38.74-3.67Q33.62 0 25.49 0L25.49 0L0.36 0L9.36-50.76L33.70-50.76Q40.61-50.76 44.42-47.99Q48.24-45.22 48.24-40.10L48.24-40.10Q48.24-38.88 48.02-37.58L48.02-37.58ZM33.12-34.99Q33.19-35.35 33.19-36.07L33.19-36.07Q33.19-39.53 28.66-39.53L28.66-39.53L21.53-39.53L19.94-30.53L27.07-30.53Q32.33-30.53 33.12-34.99L33.12-34.99ZM30.89-15.84Q30.96-16.20 30.96-16.85L30.96-16.85Q30.96-18.65 29.77-19.62Q28.58-20.59 26.28-20.59L26.28-20.59L18.14-20.59L16.56-11.30L24.77-11.30Q30.02-11.30 30.89-15.84L30.89-15.84Z"/>
  </g>
</svg>