<?xml version="1.0" standalone="no"?>
<!DOCTYPE svg PUBLIC "-//W3C//DTD SVG 1.1//EN" "http://www.w3.org/Graphics/SVG/1.1/DTD/svg11.dtd">
<svg xmlns="http://www.w3.org/2000/svg" viewBox="-7.336 -61.264 71.33600000000001 71.624">
  <g >
    <path d="M3.17-25.49Q4.46-32.98 8.64-38.84Q12.82-44.71 19.15-47.99Q25.49-51.26 32.98-51.26L32.98-51.26Q39.24-51.26 43.92-48.96Q48.60-46.66 51.19-42.41Q53.78-38.16 54.00-32.40L54.00-32.40L38.81-32.40Q37.94-35.21 35.78-36.72Q33.62-38.23 30.46-38.23L30.46-38.23Q25.56-38.23 22.03-34.78Q18.50-31.32 17.50-25.49L17.50-25.49Q17.21-23.98 17.21-22.25L17.21-22.25Q17.21-17.78 19.55-15.23Q21.89-12.67 25.99-12.67L25.99-12.67Q29.16-12.67 31.86-14.18Q34.56-15.70 36.36-18.50L36.36-18.50L51.62-18.50Q48.17-9.79 40.75-4.72Q33.34 0.36 23.83 0.36L23.83 0.36Q17.28 0.36 12.49-2.16Q7.70-4.68 5.18-9.29Q2.66-13.90 2.66-19.94L2.66-19.94Q2.66-22.75 3.17-25.49L3.17-25.49Z"/>
  </g>
</svg>