<?xml version="1.0" standalone="no"?>
<!DOCTYPE svg PUBLIC "-//W3C//DTD SVG 1.1//EN" "http://www.w3.org/Graphics/SVG/1.1/DTD/svg11.dtd">
<svg xmlns="http://www.w3.org/2000/svg" viewBox="-9.64 -60.760000000000005 71.62400000000001 70.76">
  <g >
    <path d="M29.45-50.76Q36.43-50.76 41.54-48.28Q46.66-45.79 49.32-41.26Q51.98-36.72 51.98-30.67L51.98-30.67Q51.98-27.94 51.48-25.42L51.48-25.42Q50.18-18.07 45.90-12.31Q41.62-6.55 35.03-3.28Q28.44 0 20.45 0L20.45 0L0.36 0L9.36-50.76L29.45-50.76ZM21.60-12.38Q27.79-12.38 31.90-15.80Q36.00-19.22 37.15-25.42L37.15-25.42Q37.44-26.86 37.44-28.51L37.44-28.51Q37.44-33.34 34.49-35.93Q31.54-38.52 26.21-38.52L26.21-38.52L21.38-38.52L16.70-12.38L21.60-12.38Z"/>
  </g>
</svg>