<?xml version="1.0" standalone="no"?>
<!DOCTYPE svg PUBLIC "-//W3C//DTD SVG 1.1//EN" "http://www.w3.org/Graphics/SVG/1.1/DTD/svg11.dtd">
<svg xmlns="http://www.w3.org/2000/svg" viewBox="-7.336 -61.264 71.33600000000001 71.624">
  <g >
    <path d="M3.17-25.49Q4.46-32.98 8.71-38.84Q12.96-44.71 19.37-47.99Q25.78-51.26 33.41-51.26L33.41-51.26Q42.98-51.26 48.42-46.66Q53.86-42.05 54.00-34.06L54.00-34.06L38.81-34.06Q38.02-36.07 36.07-37.15Q34.13-38.23 31.18-38.23L31.18-38.23Q25.92-38.23 22.21-34.78Q18.50-31.32 17.50-25.49L17.50-25.49Q17.14-23.33 17.14-21.89L17.14-21.89Q17.14-17.06 19.87-14.58Q22.61-12.10 27.94-12.10L27.94-12.10Q35.35-12.10 39.74-18.79L39.74-18.79L25.56-18.79L27.36-28.94L53.71-28.94L51.26-15.26Q47.52-8.86 40.54-4.25Q33.55 0.36 24.41 0.36L24.41 0.36Q17.64 0.36 12.74-2.20Q7.85-4.75 5.26-9.36Q2.66-13.97 2.66-20.02L2.66-20.02Q2.66-22.90 3.17-25.49L3.17-25.49Z"/>
  </g>
</svg>