<?xml version="1.0" standalone="no"?>
<!DOCTYPE svg PUBLIC "-//W3C//DTD SVG 1.1//EN" "http://www.w3.org/Graphics/SVG/1.1/DTD/svg11.dtd">
<svg xmlns="http://www.w3.org/2000/svg" viewBox="-9.64 -60.760000000000005 66.44 70.76">
  <g >
    <path d="M46.44-33.84Q45.65-29.23 42.88-25.45Q40.10-21.67 35.42-19.40Q30.74-17.14 24.55-17.14L24.55-17.14L17.57-17.14L14.54 0L0.36 0L9.36-50.76L30.46-50.76Q38.45-50.76 42.62-47.12Q46.80-43.49 46.80-37.37L46.80-37.37Q46.80-35.86 46.44-33.84L46.44-33.84ZM25.20-28.30Q31.18-28.30 32.11-33.84L32.11-33.84Q32.26-34.85 32.26-35.28L32.26-35.28Q32.26-37.22 31.00-38.34Q29.74-39.46 27.14-39.46L27.14-39.46L21.53-39.46L19.58-28.30L25.20-28.30Z"/>
  </g>
</svg>