<?xml version="1.0" standalone="no"?>
<!DOCTYPE svg PUBLIC "-//W3C//DTD SVG 1.1//EN" "http://www.w3.org/Graphics/SVG/1.1/DTD/svg11.dtd">
<svg xmlns="http://www.w3.org/2000/svg" viewBox="-6.616 -61.55200000000001 71.696 80.048">
  <g >
    <path d="M55.08-30.46Q55.08-22.10 51.80-15.44Q48.53-8.78 42.55-4.68L42.55-4.68L50.54 8.50L33.70 8.50L29.66 0.22Q27.65 0.50 24.91 0.50L24.91 0.50Q18.50 0.50 13.61-2.16Q8.71-4.82 6.05-9.65Q3.38-14.47 3.38-20.74L3.38-20.74Q3.38-29.74 7.16-36.76Q10.94-43.78 17.75-47.66Q24.55-51.55 33.34-51.55L33.34-51.55Q39.89-51.55 44.82-48.92Q49.75-46.30 52.42-41.51Q55.08-36.72 55.08-30.46L55.08-30.46ZM17.35-22.39Q17.35-17.86 19.87-15.23Q22.39-12.60 27.07-12.60L27.07-12.60Q31.32-12.60 34.52-14.83Q37.73-17.06 39.42-20.77Q41.11-24.48 41.11-28.80L41.11-28.80Q41.11-33.41 38.63-35.96Q36.14-38.52 31.54-38.52L31.54-38.52Q27.29-38.52 24.05-36.32Q20.81-34.13 19.08-30.46Q17.35-26.78 17.35-22.39L17.35-22.39Z"/>
  </g>
</svg>