<?xml version="1.0" standalone="no"?>
<!DOCTYPE svg PUBLIC "-//W3C//DTD SVG 1.1//EN" "http://www.w3.org/Graphics/SVG/1.1/DTD/svg11.dtd">
<svg xmlns="http://www.w3.org/2000/svg" viewBox="-9.64 -60.760000000000005 67.59200000000001 70.76">
  <g >
    <path d="M31.61-50.76Q39.60-50.76 43.78-47.20Q47.95-43.63 47.95-37.73L47.95-37.73Q47.95-35.93 47.66-34.49L47.66-34.49Q46.80-29.30 43.27-25.38Q39.74-21.46 33.91-19.80L33.91-19.80L41.83 0L26.14 0L19.37-18.72L17.86-18.72L14.54 0L0.36 0L9.36-50.76L31.61-50.76ZM21.38-39.02L19.58-28.37L26.57-28.37Q32.18-28.37 33.19-33.70L33.19-33.70Q33.34-34.56 33.34-34.92L33.34-34.92Q33.34-36.86 32.08-37.94Q30.82-39.02 28.37-39.02L28.37-39.02L21.38-39.02Z"/>
  </g>
</svg>