<?xml version="1.0" standalone="no"?>
<!DOCTYPE svg PUBLIC "-//W3C//DTD SVG 1.1//EN" "http://www.w3.org/Graphics/SVG/1.1/DTD/svg11.dtd">
<svg xmlns="http://www.w3.org/2000/svg" viewBox="-8.128 -61.55200000000001 62.19200000000001 72.05600000000001">
  <g >
    <path d="M21.38 0.50Q12.60 0.50 7.24-3.13Q1.87-6.77 1.87-13.75L1.87-13.75Q1.87-14.33 2.02-15.77L2.02-15.77L16.92-15.77Q16.70-13.32 17.93-11.95Q19.15-10.58 21.67-10.58L21.67-10.58Q23.76-10.58 25.02-11.52Q26.28-12.46 26.28-14.18L26.28-14.18Q26.28-16.20 24.44-17.50Q22.61-18.79 18.50-20.52L18.50-20.52Q14.40-22.25 11.74-23.80Q9.07-25.34 7.13-28.04Q5.18-30.74 5.18-34.78L5.18-34.78Q5.18-40.03 7.78-43.81Q10.37-47.59 15.01-49.57Q19.66-51.55 25.63-51.55L25.63-51.55Q31.03-51.55 35.21-49.86Q39.38-48.17 41.72-45.00Q44.06-41.83 44.06-37.51L44.06-37.51Q44.06-36.36 43.99-35.78L43.99-35.78L28.80-35.78Q28.87-36.14 28.87-36.79L28.87-36.79Q28.87-38.52 27.79-39.49Q26.71-40.46 24.84-40.46L24.84-40.46Q22.90-40.46 21.71-39.49Q20.52-38.52 20.52-36.79L20.52-36.79Q20.52-34.92 22.36-33.59Q24.19-32.26 28.08-30.46L28.08-30.46Q32.26-28.51 34.96-26.82Q37.66-25.13 39.60-22.32Q41.54-19.51 41.54-15.41L41.54-15.41Q41.54-10.87 39.10-7.24Q36.65-3.60 32.11-1.55Q27.58 0.50 21.38 0.50L21.38 0.50Z"/>
  </g>
</svg>