<?xml version="1.0" standalone="no"?>
<!DOCTYPE svg PUBLIC "-//W3C//DTD SVG 1.1//EN" "http://www.w3.org/Graphics/SVG/1.1/DTD/svg11.dtd">
<svg xmlns="http://www.w3.org/2000/svg" viewBox="-6.544 -60.760000000000005 69.392 71.26400000000001">
  <g >
    <path d="M9.14-50.76L23.18-50.76L18.07-21.31Q17.86-20.02 17.86-18.86L17.86-18.86Q17.86-15.98 19.40-14.40Q20.95-12.82 24.19-12.82L24.19-12.82Q28.08-12.82 30.46-15.05Q32.83-17.28 33.55-21.31L33.55-21.31L38.74-50.76L52.85-50.76L47.66-21.31Q46.44-14.11 42.70-9.22Q38.95-4.32 33.55-1.91Q28.15 0.50 21.74 0.50L21.74 0.50Q13.46 0.50 8.46-3.82Q3.46-8.14 3.46-16.20L3.46-16.20Q3.46-18.79 3.96-21.31L3.96-21.31L9.14-50.76Z"/>
  </g>
</svg>