<?xml version="1.0" standalone="no"?>
<!DOCTYPE svg PUBLIC "-//W3C//DTD SVG 1.1//EN" "http://www.w3.org/Graphics/SVG/1.1/DTD/svg11.dtd">
<svg xmlns="http://www.w3.org/2000/svg" viewBox="-6.88 -56.50000000000001 66.62 68.42000000000002">
  <g >
    <path d="M5.58 1.92L4.14 1.92Q6.54-2.22 10.47-5.28Q14.40-8.34 19.50-9.36L19.50-9.36Q20.22-10.44 20.64-11.76Q21.06-13.08 21.06-14.88L21.06-14.88L21.06-33.66Q24.42-37.92 29.04-41.28Q33.66-44.64 39.30-46.50L39.30-46.50L48.96-35.16L41.52-29.88Q43.86-29.04 45.90-27.84Q47.94-26.64 49.74-25.20L49.74-25.20L49.74-10.14L29.64 0.24Q26.94-1.20 23.97-1.95Q21-2.70 17.94-2.70L17.94-2.70Q13.92-2.70 10.83-1.44Q7.74-0.18 5.58 1.92L5.58 1.92ZM7.38-5.70L7.38-5.70L6.78-7.14Q9.30-8.58 9.87-11.37Q10.44-14.16 10.44-17.94L10.44-17.94L10.44-22.02L8.64-22.02Q6.96-22.02 5.91-21.15Q4.86-20.28 5.16-18.54L5.16-18.54L4.02-18.54Q3.12-20.22 3.12-22.08L3.12-22.08Q3.12-24.24 4.14-25.68Q5.16-27.12 6.66-27.78L6.66-27.78Q7.56-28.20 8.52-28.41Q9.48-28.62 10.44-28.74L10.44-28.74L10.44-30.30L10.44-30.30Q10.44-32.82 11.49-33.99Q12.54-35.16 14.04-36.12L14.04-36.12Q16.62-37.68 19.14-39.30L19.14-39.30Q18.78-39.30 18.48-39.30L18.48-39.30Q16.38-39.30 14.76-39.99Q13.14-40.68 11.04-40.68L11.04-40.68Q9.48-40.68 8.40-39.96Q7.32-39.24 6.90-38.04L6.90-38.04L5.46-38.04Q6.24-39.90 7.68-41.61Q9.12-43.32 11.19-44.43Q13.26-45.54 15.90-45.54L15.90-45.54Q18-45.54 19.98-44.97Q21.96-44.40 24.06-44.40L24.06-44.40Q25.62-44.40 27.00-44.82Q28.38-45.24 29.40-45.84L29.40-45.84L29.04-44.52L20.16-37.56Q19.20-36.78 18.69-35.82Q18.18-34.86 18.18-33.12L18.18-33.12L18.18-18.24Q18.18-14.52 16.65-12.00Q15.12-9.48 12.63-7.95Q10.14-6.42 7.38-5.70ZM33.12-26.10L41.10-32.04L33.12-41.46L33.12-26.10ZM23.88-9.78L23.88-9.78Q25.98-9.78 27.87-9.42Q29.76-9.06 31.38-8.34L31.38-8.34L31.38-41.10Q30.42-40.38 29.73-39.24Q29.04-38.10 29.04-36.72L29.04-36.72L29.04-21.06Q29.04-18.12 28.11-16.11Q27.18-14.10 25.71-12.60Q24.24-11.10 22.62-9.78L22.62-9.78Q23.22-9.78 23.88-9.78ZM33.12-25.68L33.12-25.68L33.12-17.64L40.98-21.60Q39.24-22.86 37.26-23.88Q35.28-24.90 33.12-25.68ZM41.88-20.10L33.12-15.72L33.12-11.34L41.88-15.72L41.88-20.10ZM36.96-4.92L41.88-7.20L41.88-13.80L33.12-9.42L33.12-7.56Q35.16-6.48 36.96-4.92L36.96-4.92Z"/>
  </g>
</svg>