<?xml version="1.0" standalone="no"?>
<!DOCTYPE svg PUBLIC "-//W3C//DTD SVG 1.1//EN" "http://www.w3.org/Graphics/SVG/1.1/DTD/svg11.dtd">
<svg xmlns="http://www.w3.org/2000/svg" viewBox="-7.06 -57.160000000000004 63.02 69.02000000000001">
  <g >
    <path d="M4.68 1.86L2.94 1.86Q4.80-1.68 7.95-4.47Q11.10-7.26 15.42-8.52L15.42-8.52Q17.22-10.20 18.81-12.15Q20.40-14.10 20.40-17.46L20.40-17.46L20.40-28.26Q20.40-31.14 20.97-33.33Q21.54-35.52 23.04-37.08L23.04-37.08L21.12-37.08Q19.80-35.88 19.02-34.38Q18.24-32.88 18.24-30.42L18.24-30.42L18.24-25.74L18.24-19.62Q18.24-15.90 16.71-13.38Q15.18-10.86 12.69-9.33Q10.20-7.80 7.38-7.08L7.38-7.08L6.84-8.52Q9.36-9.96 9.93-12.78Q10.50-15.60 10.50-19.32L10.50-19.32L10.50-19.50L9.06-19.50Q7.20-19.50 6.33-18.54Q5.46-17.58 5.64-16.02L5.64-16.02L4.50-16.02Q3.54-17.70 3.54-19.56L3.54-19.56Q3.54-23.04 5.61-24.42Q7.68-25.80 10.50-26.22L10.50-26.22L10.50-27.66Q10.50-30.36 11.55-31.65Q12.60-32.94 14.22-34.02L14.22-34.02L18.96-37.08L10.62-37.08Q8.22-37.08 7.23-38.73Q6.24-40.38 6.27-42.72Q6.30-45.06 6.90-47.16L6.90-47.16L8.16-47.10Q8.46-45.60 9.63-45Q10.80-44.40 12.60-44.40L12.60-44.40L28.98-44.40Q35.22-44.40 38.97-41.79Q42.72-39.18 44.34-34.68Q45.96-30.18 45.96-24.42L45.96-24.42Q45.96-19.74 44.82-15.39Q43.68-11.04 42.06-7.68L42.06-7.68L27.06 0.54Q22.38-2.76 16.68-2.76L16.68-2.76Q13.38-2.76 10.23-1.56Q7.08-0.36 4.68 1.86L4.68 1.86ZM30.96-36.54L30.96-36.54Q30.00-36.84 28.98-36.96Q27.96-37.08 26.94-37.08L26.94-37.08L26.94-24.96L36.84-29.94Q36.06-32.34 34.62-34.05Q33.18-35.76 30.96-36.54ZM21.48-9.36L21.48-9.36Q23.34-9.36 25.20-9L25.20-9L25.20-36.78Q23.40-35.46 22.74-33.36Q22.08-31.26 22.08-28.26L22.08-28.26L22.08-17.46Q22.08-14.58 21-12.63Q19.92-10.68 18.42-9.12L18.42-9.12Q19.92-9.36 21.48-9.36ZM37.26-28.26L26.94-23.04L26.94-18.42L37.80-23.94Q37.68-26.28 37.26-28.26L37.26-28.26ZM34.50-4.98L34.50-4.98Q36-8.82 36.93-13.02Q37.86-17.22 37.86-22.02L37.86-22.02L26.94-16.50L26.94-8.64Q31.14-7.56 34.50-4.98Z"/>
  </g>
</svg>