<?xml version="1.0" standalone="no"?>
<!DOCTYPE svg PUBLIC "-//W3C//DTD SVG 1.1//EN" "http://www.w3.org/Graphics/SVG/1.1/DTD/svg11.dtd">
<svg xmlns="http://www.w3.org/2000/svg" viewBox="-7.06 -57.040000000000006 64.16 76.94">
  <g >
    <path d="M10.38 9.90L10.38 9.90Q7.32 9.90 5.13 7.83Q2.94 5.76 2.94 2.64L2.94 2.64Q2.94-0.36 4.95-2.10Q6.96-3.84 9.78-4.26L9.78-4.26Q11.40-6.66 11.64-10.08Q11.88-13.50 11.88-17.70L11.88-17.70L11.88-21.96L9.06-21.96Q7.32-21.96 6.30-20.97Q5.28-19.98 5.64-18.12L5.64-18.12L4.50-18.12Q3.00-20.94 3.93-23.67Q4.86-26.40 7.08-27.48L7.08-27.48Q8.22-28.02 9.42-28.23Q10.62-28.44 11.88-28.62L11.88-28.62L11.88-30.12L11.88-30.12Q11.88-32.58 13.05-33.78Q14.22-34.98 15.48-36.18L15.48-36.18Q17.64-38.28 20.04-40.20L20.04-40.20Q18.90-39.90 17.76-39.90L17.76-39.90Q16.26-39.90 15.03-40.35Q13.80-40.80 12.54-41.25Q11.28-41.70 9.78-41.70L9.78-41.70Q8.22-41.70 7.11-40.89Q6.00-40.08 5.58-38.88L5.58-38.88L4.14-38.88Q4.92-40.80 6.33-42.60Q7.74-44.40 9.81-45.57Q11.88-46.74 14.52-46.74L14.52-46.74Q16.86-46.74 19.02-45.99Q21.18-45.24 23.52-45.24L23.52-45.24Q25.14-45.24 26.49-45.66Q27.84-46.08 28.86-46.74L28.86-46.74L28.80-45.18Q28.20-44.76 27.60-44.40Q27.00-44.04 26.40-43.62L26.40-43.62Q25.92-43.26 25.38-42.90Q24.84-42.54 24.30-42.18L24.30-42.18Q22.26-40.62 20.94-38.43Q19.62-36.24 19.62-32.34L19.62-32.34L19.62-23.88L19.62-12.48Q19.62-9.96 17.40-7.92Q15.18-5.88 12.72-4.32L12.72-4.32Q14.88-4.20 17.01-3.84Q19.14-3.48 21.24-3.30L21.24-3.30Q22.56-4.14 22.56-6.42L22.56-6.42L22.56-36.78L34.20-47.04Q36.30-45.60 38.58-44.46Q40.86-43.32 43.50-42.48L43.50-42.48L45.42-44.22L47.10-42.96L39.72-35.70Q37.32-36.36 35.10-37.44Q32.88-38.52 31.02-39.84L31.02-39.84L31.02-28.86L43.02-28.86L36.18-21.84L31.02-21.84L31.02-13.26Q31.02-13.26 29.79-11.67Q28.56-10.08 26.64-7.71Q24.72-5.34 22.62-2.94Q20.52-0.54 18.78 1.02L18.78 1.02Q17.76 1.92 15.99 2.52Q14.22 3.12 12.42 3.18L12.42 3.18L10.68 3.18Q9.48 3.18 8.64 3.78Q7.80 4.38 7.80 5.40L7.80 5.40Q7.80 6.42 8.58 7.35Q9.36 8.28 10.50 8.28L10.50 8.28L10.50 9.84Q10.44 9.90 10.38 9.90Z"/>
  </g>
</svg>