<?xml version="1.0" standalone="no"?>
<!DOCTYPE svg PUBLIC "-//W3C//DTD SVG 1.1//EN" "http://www.w3.org/Graphics/SVG/1.1/DTD/svg11.dtd">
<svg xmlns="http://www.w3.org/2000/svg" viewBox="-7.3 -55.540000000000006 53.9 71.54">
  <g >
    <path d="M12.54-9L10.56-9Q13.56-10.62 14.16-14.52L14.16-14.52Q14.22-15.30 14.25-16.08Q14.28-16.86 14.28-17.64L14.28-17.64L14.28-21.96L12.06-21.96Q9.90-21.96 9.24-20.88Q8.58-19.80 8.58-18.84L8.58-18.84Q8.58-18.48 8.64-18.12L8.64-18.12L7.50-18.12Q6.60-19.80 6.60-21.66L6.60-21.66Q6.60-24.36 7.86-25.74Q9.12-27.12 10.89-27.72Q12.66-28.32 14.28-28.56L14.28-28.56L14.28-30.12Q14.28-31.44 14.49-32.40Q14.70-33.36 15.48-34.35Q16.26-35.34 18-36.66L18-36.66Q18.90-37.38 19.98-38.04L19.98-38.04Q19.26-37.98 18.54-37.98L18.54-37.98Q16.62-37.98 14.82-38.40Q13.02-38.82 11.16-38.82L11.16-38.82Q7.98-38.82 7.08-36.42L7.08-36.42L5.70-36.42Q6.06-37.32 6.87-38.76Q7.68-40.20 9.03-41.64Q10.38-43.08 12.24-44.10Q14.10-45.12 16.50-45.12L16.50-45.12Q18.78-45.12 20.97-44.37Q23.16-43.62 25.38-43.62L25.38-43.62Q26.46-43.62 27.87-43.98Q29.28-44.34 30.54-45.54L30.54-45.54L30.48-43.92Q29.28-42.12 27.90-41.19Q26.52-40.26 25.20-39.18L25.20-39.18Q24.42-38.52 23.70-37.95Q22.98-37.38 22.50-36.18Q22.02-34.98 22.02-32.34L22.02-32.34L22.02-23.88L22.02-19.26Q22.02-17.82 21.84-16.71Q21.66-15.60 21.12-14.64L21.12-14.64Q19.92-12.42 17.49-11.10Q15.06-9.78 12.54-9L12.54-9ZM9.30 5.04L9.30 6.00Q5.82 6.00 4.26 3.96Q2.70 1.92 2.70-1.02L2.70-1.02Q2.70-4.14 4.83-6.03Q6.96-7.92 9.96-7.92L9.96-7.92Q13.02-7.92 16.56-6.78Q20.10-5.64 23.64-4.68L23.64-4.68Q24.24-4.98 24.63-5.31Q25.02-5.64 25.20-6.57Q25.38-7.50 25.38-9.60L25.38-9.60L25.38-32.34Q25.38-35.58 26.13-37.17Q26.88-38.76 28.38-39.78Q29.88-40.80 32.22-42.30L32.22-42.30L35.70-44.64L36.60-43.68Q35.10-42.72 34.47-41.07Q33.84-39.42 33.84-37.14L33.84-37.14L33.84-14.04Q28.98-5.82 21.24-0.18L21.24-0.18Q20.46 0.36 19.56 0.78Q18.66 1.20 17.40 1.20L17.40 1.20Q16.74 1.20 16.14 1.11Q15.54 1.02 14.94 0.96L14.94 0.96L9.42 0.24Q8.88 0.18 8.58 0.18L8.58 0.18Q7.62 0.18 6.99 0.75Q6.36 1.32 6.36 2.28L6.36 2.28Q6.36 3.48 7.23 4.26Q8.10 5.04 9.30 5.04L9.30 5.04L9.30 5.04Z"/>
  </g>
</svg>