<?xml version="1.0" standalone="no"?>
<!DOCTYPE svg PUBLIC "-//W3C//DTD SVG 1.1//EN" "http://www.w3.org/Graphics/SVG/1.1/DTD/svg11.dtd">
<svg xmlns="http://www.w3.org/2000/svg" viewBox="-7.18 -55.900000000000006 53.96 71.60000000000001">
  <g >
    <path d="M12.96 2.82L12.96 2.82L12.96 0.84Q14.22 0.48 15.03-0.45Q15.84-1.38 15.84-3.00L15.84-3.00L15.84-18.54L14.34-18.54Q12.66-18.54 11.64-17.67Q10.62-16.80 10.92-15.12L10.92-15.12L9.78-15.12Q8.82-16.74 8.82-18.60L8.82-18.60Q8.82-21.06 9.96-22.44Q11.10-23.82 12.72-24.45Q14.34-25.08 15.84-25.32L15.84-25.32L15.84-27.66Q15.84-29.28 16.29-30.60Q16.74-31.92 18.27-33.48Q19.80-35.04 22.98-37.38L22.98-37.38Q21.42-37.08 19.68-37.08L19.68-37.08Q18-37.08 16.44-37.32Q14.88-37.56 13.26-37.56L13.26-37.56Q11.16-37.56 9.39-36.63Q7.62-35.70 7.62-33.60L7.62-33.60Q7.62-32.52 8.25-31.74Q8.88-30.96 9.72-30.66L9.72-30.66L9.48-30.18Q7.44-30.90 5.91-32.82Q4.38-34.74 4.38-37.44L4.38-37.44Q4.38-41.04 7.02-43.23Q9.66-45.42 13.26-45.42L13.26-45.42Q16.02-45.42 18.63-44.58Q21.24-43.74 24.06-43.74L24.06-43.74Q27.78-43.74 30.48-45.90L30.48-45.90L31.86-44.64Q28.68-42.30 26.91-40.53Q25.14-38.76 24.45-36.96Q23.76-35.16 23.76-32.58L23.76-32.58L23.76-7.92Q23.76-5.22 22.50-2.76Q21.24-0.30 18.84 1.26Q16.44 2.82 12.96 2.82ZM15.06 5.70L15.06 5.70Q13.20 5.70 11.46 5.34Q9.72 4.98 8.10 4.14L8.10 4.14Q6.18 3.18 4.50 1.26Q2.82-0.66 2.82-3.48L2.82-3.48Q2.82-5.82 4.32-7.56Q5.82-9.30 8.10-9.30L8.10-9.30Q9.96-9.30 11.31-7.98Q12.66-6.66 12.66-4.80L12.66-4.80Q12.66-2.94 11.43-1.71Q10.20-0.48 8.40-0.48L8.40-0.48Q7.38-0.48 6.54-0.90L6.54-0.90Q7.56 1.32 9.69 2.79Q11.82 4.26 14.88 4.26L14.88 4.26Q16.50 4.26 18.48 3.63Q20.46 3.00 22.26 1.50Q24.06 0 25.20-2.61Q26.34-5.22 26.34-9.18L26.34-9.18L26.34-27.42Q26.34-31.92 27.00-34.56Q27.66-37.20 28.92-38.82Q30.18-40.44 31.98-41.73Q33.78-43.02 36-44.76L36-44.76L36.78-43.98Q35.40-42.48 34.83-39.90Q34.26-37.32 34.26-32.34L34.26-32.34L34.26-15.78Q34.26-9.54 32.64-5.55Q31.02-1.56 28.50 0.75Q25.98 3.06 23.25 4.11Q20.52 5.16 18.27 5.43Q16.02 5.70 15.06 5.70Z"/>
  </g>
</svg>