<?xml version="1.0" standalone="no"?>
<!DOCTYPE svg PUBLIC "-//W3C//DTD SVG 1.1//EN" "http://www.w3.org/Graphics/SVG/1.1/DTD/svg11.dtd">
<svg xmlns="http://www.w3.org/2000/svg" viewBox="-5.619999999999999 -55.78 65.30000000000001 67.1">
  <g >
    <path d="M6.84 1.32L4.98 1.32Q6.60-1.80 9.30-4.38Q12.00-6.96 15.48-8.34L15.48-8.34Q18.18-10.14 19.68-11.61Q21.18-13.08 21.81-14.70Q22.44-16.32 22.50-18.54L22.50-18.54L22.80-31.62Q22.80-32.22 22.86-33.66Q22.92-35.10 23.55-37.08Q24.18-39.06 25.80-41.31Q27.42-43.56 30.54-45.78L30.54-45.78L31.50-44.34Q28.08-42 26.34-39.09Q24.60-36.18 24.48-31.56L24.48-31.56L24.30-22.56L35.40-35.64Q33-36 30.90-37.32L30.90-37.32L28.62-34.80L27.78-35.64L35.16-44.46Q36.06-43.44 37.32-42.72Q38.58-42 40.38-42L40.38-42Q42.18-42 43.44-42.99Q44.70-43.98 45.12-45.36L45.12-45.36L45.96-45.36Q46.08-44.70 46.08-43.98L46.08-43.98Q46.08-41.82 44.97-39.87Q43.86-37.92 41.82-36.72Q39.78-35.52 37.02-35.52L37.02-35.52L37.02-35.52L30.42-27.84Q33.90-26.76 35.91-24.90Q37.92-23.04 38.97-20.73Q40.02-18.42 40.68-16.02L40.68-16.02Q41.58-13.02 42.45-10.20Q43.32-7.38 45.54-5.52L45.54-5.52L49.68-8.70L49.68-6.90L40.50 0.42Q38.34-0.60 37.11-2.34Q35.88-4.08 35.16-6.12L35.16-6.12L26.76 0.48Q23.40-2.10 19.44-3.00L19.44-3.00Q17.76-3.36 16.14-3.36L16.14-3.36Q12.90-3.36 10.53-2.04Q8.16-0.72 6.84 1.32L6.84 1.32ZM10.68-8.76L8.70-8.76Q11.46-10.14 12.18-13.56L12.18-13.56Q12.36-14.40 12.39-15.30Q12.42-16.20 12.42-17.04L12.42-17.04L12.42-22.08L10.80-22.08Q9-22.08 8.07-21.12Q7.14-20.16 7.44-18.60L7.44-18.60L6.30-18.60Q5.52-20.34 5.52-22.20L5.52-22.20Q5.52-24.90 6.66-26.31Q7.80-27.72 9.42-28.20Q11.04-28.68 12.48-28.74L12.48-28.74Q12.60-31.32 13.14-32.61Q13.68-33.90 14.61-34.68Q15.54-35.46 16.80-36.54L16.80-36.54L19.32-38.70Q17.58-37.80 15.84-37.80L15.84-37.80Q14.04-37.80 12.54-38.37Q11.04-38.94 9.30-38.94L9.30-38.94Q7.92-38.94 6.96-38.25Q6.00-37.56 5.82-36.42L5.82-36.42L4.38-36.42Q4.92-37.38 5.79-38.82Q6.66-40.26 7.92-41.70Q9.18-43.14 10.74-44.10Q12.30-45.06 14.16-45.06L14.16-45.06Q16.32-45.06 18-44.25Q19.68-43.44 21.84-43.44L21.84-43.44Q23.34-43.44 24.45-43.83Q25.56-44.22 26.52-44.94L26.52-44.94L26.40-43.98Q26.16-43.80 25.98-43.62L25.98-43.62Q23.70-41.82 21.93-38.73Q20.16-35.64 20.16-30.54L20.16-30.54L20.16-25.08L20.16-20.46Q20.16-18.84 19.95-17.58Q19.74-16.32 19.20-15.18L19.20-15.18Q18-12.84 15.60-11.28Q13.20-9.72 10.68-8.76L10.68-8.76ZM22.02-9.66L22.02-9.66Q28.26-9.66 33-5.76L33-5.76L34.80-7.14Q34.32-8.64 33.93-10.20Q33.54-11.76 33.06-13.26L33.06-13.26Q32.16-16.26 30.51-18.66Q28.86-21.06 25.26-21.78L25.26-21.78L24.48-20.88L24.24-20.88L24.18-18.54Q24.12-15.84 23.31-13.77Q22.50-11.70 19.86-9.48L19.86-9.48Q20.94-9.66 22.02-9.66Z"/>
  </g>
</svg>