<?xml version="1.0" standalone="no"?>
<!DOCTYPE svg PUBLIC "-//W3C//DTD SVG 1.1//EN" "http://www.w3.org/Graphics/SVG/1.1/DTD/svg11.dtd">
<svg xmlns="http://www.w3.org/2000/svg" viewBox="-6.9399999999999995 -55.540000000000006 59.42 68.18">
  <g >
    <path d="M8.76-5.76L6.78-5.76Q8.58-6.90 9.51-9.84Q10.44-12.78 10.44-17.10L10.44-17.10L10.44-20.82L8.70-20.82Q6.84-20.82 5.94-19.86Q5.04-18.90 5.34-17.34L5.34-17.34L4.14-17.34Q3.42-19.08 3.42-20.94L3.42-20.94Q3.42-23.16 4.38-24.66Q5.34-26.16 6.90-26.88L6.90-26.88Q7.50-27.12 8.25-27.30Q9-27.48 10.44-27.48L10.44-27.48L10.44-28.32Q10.44-31.38 11.37-32.91Q12.30-34.44 13.95-35.52Q15.60-36.60 17.88-38.28L17.88-38.28Q16.62-37.92 15.36-37.92L15.36-37.92Q13.56-37.92 11.91-38.37Q10.26-38.82 8.52-38.82L8.52-38.82Q5.40-38.82 4.50-36.42L4.50-36.42L3.06-36.42Q3.18-36.66 3.87-38.01Q4.56-39.36 5.85-40.98Q7.14-42.60 9-43.83Q10.86-45.06 13.32-45.06L13.32-45.06Q15.42-45.06 17.25-44.34Q19.08-43.62 21.24-43.62L21.24-43.62Q22.92-43.62 24.18-44.16Q25.44-44.70 26.40-45.54L26.40-45.54L26.28-43.98Q26.04-43.68 24.84-42.39Q23.64-41.10 21.66-39.90L21.66-39.90Q21.48-39.72 21.27-39.54Q21.06-39.36 20.88-39.18L20.88-39.18Q19.38-37.80 18.81-35.43Q18.24-33.06 18.24-30.54L18.24-30.54L18.24-18.66Q18.18-15.30 16.74-12.36Q15.30-9.42 13.11-7.59Q10.92-5.76 8.76-5.76L8.76-5.76ZM5.52 2.64L5.52 2.64L5.52 1.56Q7.38-1.92 10.65-4.56Q13.92-7.20 18.36-8.40L18.36-8.40Q19.80-10.02 20.31-12.72Q20.82-15.42 20.82-19.32L20.82-19.32L20.82-28.32Q20.82-34.08 22.35-37.53Q23.88-40.98 27.00-42.78Q30.12-44.58 34.86-45.42L34.86-45.42L35.52-45.54L35.52-44.22L34.50-43.92Q31.08-42.90 29.82-40.11Q28.56-37.32 28.56-33.48L28.56-33.48L28.56-19.62Q28.56-17.28 27.96-15.63Q27.36-13.98 25.92-12.48Q24.48-10.98 21.96-9.06L21.96-9.06Q23.28-9.18 24.54-9.18L24.54-9.18Q28.92-9.18 32.70-8.07Q36.48-6.96 39.60-5.34L39.60-5.34L41.52-6.78L42.48-5.46L33.72 1.14Q27.72-2.34 20.76-2.34L20.76-2.34Q16.44-2.34 12.60-1.05Q8.76 0.24 5.52 2.64Z"/>
  </g>
</svg>