<?xml version="1.0" standalone="no"?>
<!DOCTYPE svg PUBLIC "-//W3C//DTD SVG 1.1//EN" "http://www.w3.org/Graphics/SVG/1.1/DTD/svg11.dtd">
<svg xmlns="http://www.w3.org/2000/svg" viewBox="-6.88 -55.540000000000006 81.5 71.66">
  <g >
    <path d="M4.26-37.50L4.26-37.50L3.12-38.04Q4.38-42 6.81-43.77Q9.24-45.54 11.28-45.54L11.28-45.54Q12.84-45.54 14.07-45.12Q15.30-44.70 16.53-44.25Q17.76-43.80 19.32-43.80L19.32-43.80Q20.46-43.80 21.12-44.37Q21.78-44.94 22.38-45.54L22.38-45.54L23.52-44.94Q20.28-41.28 18.27-40.11Q16.26-38.94 14.10-38.94L14.10-38.94Q12.42-38.94 11.07-39.54Q9.72-40.14 8.04-40.14L8.04-40.14Q6.60-40.14 5.64-39.36Q4.68-38.58 4.26-37.50ZM11.58 6.12L11.58 6.12Q8.76 6.12 6.93 3.96Q5.10 1.80 5.10-0.90L5.10-0.90Q5.10-4.08 7.14-6.00Q9.18-7.92 12.18-7.92L12.18-7.92Q16.44-7.92 18.57-8.91Q20.70-9.90 21.39-11.82Q22.08-13.74 22.08-16.56L22.08-16.56L22.08-38.40Q20.58-37.32 19.62-35.64Q18.66-33.96 18.66-31.38L18.66-31.38L18.66-18Q18.66-15.00 17.07-13.20Q15.48-11.40 13.11-10.53Q10.74-9.66 8.28-9.48L8.28-9.48L7.98-10.62Q9.96-10.86 10.41-12.57Q10.86-14.28 10.86-16.20L10.86-16.20L10.86-20.70L8.88-20.70Q7.14-20.70 6.12-19.80Q5.10-18.90 5.40-17.22L5.40-17.22L4.26-17.22Q3.36-18.90 3.36-20.76L3.36-20.76Q3.36-23.52 5.28-25.35Q7.20-27.18 10.92-27.66L10.92-27.66Q11.22-30.60 12.75-32.79Q14.28-34.98 17.88-37.26L17.88-37.26L29.88-44.88Q31.98-43.14 34.08-41.40Q36.18-39.66 38.22-37.92L38.22-37.92L41.46-39.90L41.46-44.28L43.20-44.28L43.20-40.92L49.74-44.82L57.36-38.04L59.82-40.08L60.90-38.76L57.78-36.24L57.78-8.34L60.36-6.06L63.78-8.34L64.62-7.44L55.44 0L48.54-5.76L46.56-4.32L45.96-5.16L49.44-7.56L49.44-17.10Q48.12-18.24 46.35-18.33Q44.58-18.42 43.20-17.40L43.20-17.40L43.20-7.08L45.12-8.34L45.96-7.44L35.88 0L28.98-5.76L27.00-4.32L26.40-5.16L30.18-7.74L30.18-17.04Q28.86-18.24 27.06-18.33Q25.26-18.42 23.82-17.40L23.82-17.40L23.82-15.06L23.82-9.30Q23.82-9.30 23.82-9.30L23.82-9.30Q23.82-4.86 20.91-2.85Q18-0.84 13.98-0.54L13.98-0.54Q12.36-0.42 10.74 0.03Q9.12 0.48 9.12 2.22L9.12 2.22Q9.12 3.36 10.05 3.99Q10.98 4.62 12.12 4.62L12.12 4.62Q12.24 4.62 12.30 4.62L12.30 4.62L12.30 6.06Q11.94 6.12 11.58 6.12ZM49.44-26.46L49.44-33.66L43.20-38.64L43.20-26.22Q44.58-25.20 46.35-25.26Q48.12-25.32 49.44-26.46L49.44-26.46ZM30.18-26.58L30.18-33.90L23.82-38.28L23.82-26.22Q25.26-25.20 27.06-25.29Q28.86-25.38 30.18-26.58L30.18-26.58ZM37.92-36.06L37.92-8.88L41.46-6.24L41.46-38.22L37.92-36.06ZM23.82-24.48L23.82-19.14Q25.20-20.10 26.97-20.07Q28.74-20.04 30.18-18.78L30.18-18.78L30.18-24.84Q28.80-23.64 27.03-23.55Q25.26-23.46 23.82-24.48L23.82-24.48ZM43.20-24.48L43.20-19.14Q44.58-20.04 46.32-20.04Q48.06-20.04 49.44-18.90L49.44-18.90L49.44-24.72Q48.12-23.64 46.38-23.55Q44.64-23.46 43.20-24.48L43.20-24.48Z"/>
  </g>
</svg>