<?xml version="1.0" standalone="no"?>
<!DOCTYPE svg PUBLIC "-//W3C//DTD SVG 1.1//EN" "http://www.w3.org/Graphics/SVG/1.1/DTD/svg11.dtd">
<svg xmlns="http://www.w3.org/2000/svg" viewBox="-7.3 -55.660000000000004 58.76 72.32000000000001">
  <g >
    <path d="M4.08-0.84L2.70-0.84Q3.72-2.64 5.85-4.98Q7.98-7.32 11.22-9L11.22-9L11.22-20.22L9.24-20.22Q5.94-20.22 5.94-17.64L5.94-17.64Q5.94-17.58 5.94-17.52L5.94-17.52L4.56-17.52Q4.14-18.54 4.14-19.68L4.14-19.68Q4.14-22.56 6.21-24.39Q8.28-26.22 10.86-26.22L10.86-26.22Q11.04-26.22 11.22-26.22L11.22-26.22L11.22-36.12Q11.22-37.74 10.65-38.70Q10.08-39.66 8.94-39.66L8.94-39.66Q7.68-39.66 6.96-38.76Q6.24-37.86 6.06-36.78L6.06-36.78L4.62-36.78Q4.74-39.72 6.99-42.03Q9.24-44.34 12.72-44.34L12.72-44.34Q14.10-44.34 15.72-43.74Q17.34-43.14 18.48-41.43Q19.62-39.72 19.62-36.24L19.62-36.24L19.62-35.16L22.08-36.96L22.08-44.22L23.82-44.22L23.82-38.22L34.02-45.66Q38.34-42.66 41.46-38.34L41.46-38.34L41.46-10.26L25.74-1.80Q24.78-2.58 23.82-3.24L23.82-3.24L23.82 4.98L23.82 4.98L23.82 6.66L11.22 6.66L11.22-5.16Q6.96-3.96 4.08-0.84L4.08-0.84ZM28.14-39.42L28.14-39.42L23.82-36.30L23.82-24.96L33.78-30.06L33.78-34.32Q31.26-37.20 28.14-39.42ZM20.46-11.28L20.46-11.28Q21.24-11.28 22.08-11.22L22.08-11.22L22.08-35.10L19.62-33.36L19.62-11.28Q20.04-11.28 20.46-11.28ZM33.78-28.08L23.82-23.04L23.82-18.66L33.78-23.76L33.78-28.08ZM32.46-7.38L33.78-8.16L33.78-21.78L23.82-16.74L23.82-10.98Q28.62-10.20 32.46-7.38L32.46-7.38ZM19.62-5.16L19.62 4.98L22.08 4.98L22.08-4.20Q20.88-4.80 19.62-5.16L19.62-5.16Z"/>
  </g>
</svg>