<?xml version="1.0" standalone="no"?>
<!DOCTYPE svg PUBLIC "-//W3C//DTD SVG 1.1//EN" "http://www.w3.org/Graphics/SVG/1.1/DTD/svg11.dtd">
<svg xmlns="http://www.w3.org/2000/svg" viewBox="-7.359999999999999 -55.720000000000006 66.08000000000001 67.22">
  <g >
    <path d="M4.50 1.50L2.64 1.50Q4.08-1.38 6.48-3.81Q8.88-6.24 12.00-7.68L12.00-7.68L12.00-19.08L9.96-19.08Q8.16-19.08 7.23-18.12Q6.30-17.16 6.60-15.60L6.60-15.60L5.46-15.60Q4.68-17.34 4.68-19.20L4.68-19.20Q4.68-22.08 5.91-23.49Q7.14-24.90 8.82-25.35Q10.50-25.80 12.00-25.80L12.00-25.80L12.00-36.78Q12.00-38.22 11.49-39.33Q10.98-40.44 9.54-40.44L9.54-40.44Q8.34-40.44 7.59-39.54Q6.84-38.64 6.84-37.44L6.84-37.44L5.40-37.44Q5.52-40.38 7.77-42.69Q10.02-45 13.50-45L13.50-45Q14.88-45 16.50-44.40Q18.12-43.80 19.26-42.09Q20.40-40.38 20.40-36.90L20.40-36.90L20.40-36L22.80-38.04L22.80-44.46L24.54-44.46L24.54-39.42L32.10-45.72L41.58-32.70L32.88-25.20Q35.70-24.00 37.11-22.14Q38.52-20.28 39.21-18.06Q39.90-15.84 40.38-13.53Q40.86-11.22 41.76-9.09Q42.66-6.96 44.58-5.34L44.58-5.34L48.72-8.52L48.72-6.72L39.54 0.60Q37.08-0.60 35.85-2.61Q34.62-4.62 33.96-6.90L33.96-6.90L24.42 0.66Q23.82 0.18 22.29-0.75Q20.76-1.68 18.57-2.43Q16.38-3.18 13.74-3.18L13.74-3.18Q10.50-3.18 8.16-1.86Q5.82-0.54 4.50 1.50L4.50 1.50ZM33.96-28.32L26.34-39.18L24.54-37.56L24.54-20.16L33.96-28.32ZM20.40-33.96L20.40-9.42Q21.60-9.36 22.80-9.18L22.80-9.18L22.80-36.06L20.40-33.96ZM30.66-5.58L30.66-5.58L33.66-7.98Q33-10.50 32.43-12.93Q31.86-15.36 30.54-17.19Q29.22-19.02 26.46-19.68L26.46-19.68L24.54-18.06L24.54-8.76Q27.96-7.80 30.66-5.58Z"/>
  </g>
</svg>