<?xml version="1.0" standalone="no"?>
<!DOCTYPE svg PUBLIC "-//W3C//DTD SVG 1.1//EN" "http://www.w3.org/Graphics/SVG/1.1/DTD/svg11.dtd">
<svg xmlns="http://www.w3.org/2000/svg" viewBox="-7.3 -58.06 57.38 79.28">
  <g >
    <path d="M17.58 11.22L17.58 11.22Q13.68 11.22 10.29 9.69Q6.90 8.16 4.80 5.40Q2.70 2.64 2.70-1.08L2.70-1.08Q2.70-4.50 4.53-7.56Q6.36-10.62 8.91-13.20Q11.46-15.78 13.56-17.64L13.56-17.64L14.10-18.18L5.70-23.64L5.70-35.70L22.20-46.08Q23.88-44.52 26.25-43.35Q28.62-42.18 31.20-42.18L31.20-42.18Q33.96-42.18 36.09-43.74Q38.22-45.30 38.40-48.06L38.40-48.06L38.40-48.06L38.40-48.06L39.30-48.06L39.48-48.06L39.48-48.06L40.08-48.06L40.08-47.22Q40.08-43.32 38.55-40.26Q37.02-37.20 34.71-34.71Q32.40-32.22 30.06-30.12L30.06-30.12Q32.58-29.28 34.83-28.02Q37.08-26.76 39-25.20L39-25.20L39-10.14L22.56 0.24Q20.64-1.86 17.91-3.36Q15.18-4.86 11.82-4.86L11.82-4.86Q10.14-4.86 8.34-4.50Q6.54-4.14 5.40-3.03Q4.26-1.92 4.56 0.24L4.56 0.24Q5.10 2.94 7.29 4.32Q9.48 5.70 12.33 6.18Q15.18 6.66 17.76 6.66L17.76 6.66Q20.82 6.66 24.06 5.88Q27.30 5.10 29.85 3.39Q32.40 1.68 33.30-1.20L33.30-1.20L34.92-0.72Q34.02 2.76 31.41 5.46Q28.80 8.16 25.17 9.69Q21.54 11.22 17.58 11.22ZM13.56-38.40L13.56-28.08L16.92-25.80L16.92-37.86Q16.32-38.22 15.78-38.55Q15.24-38.88 14.70-39.18L14.70-39.18L13.56-38.40ZM27.24-34.92L27.24-34.92Q24.78-34.92 22.62-35.52Q20.46-36.12 18.60-37.02L18.60-37.02L18.60-24.66L20.16-23.52L27.54-30.12Q29.16-31.62 30.96-33.27Q32.76-34.92 34.32-36.84L34.32-36.84Q31.20-34.92 27.24-34.92ZM16.08-12.00L16.08-12.00Q18.90-12.00 21.39-11.25Q23.88-10.50 25.98-9.36L25.98-9.36L25.98-23.52L23.82-24.54L14.70-16.44Q13.20-15.06 11.31-13.29Q9.42-11.52 7.80-9.42L7.80-9.42Q9.48-10.62 11.58-11.31Q13.68-12.00 16.08-12.00ZM31.14-7.20L31.14-21L27.66-22.68L27.66-8.34Q28.80-7.56 30.00-6.66L30.00-6.66L31.14-7.20Z"/>
  </g>
</svg>