<?xml version="1.0" standalone="no"?>
<!DOCTYPE svg PUBLIC "-//W3C//DTD SVG 1.1//EN" "http://www.w3.org/Graphics/SVG/1.1/DTD/svg11.dtd">
<svg xmlns="http://www.w3.org/2000/svg" viewBox="-4.42 -57.49843750000001 57.38 67.25843750000001">
  <g >
    <path d="M24.78-0.24L24.78-0.24Q21.06-0.24 17.64-1.59Q14.22-2.94 11.49-5.43Q8.76-7.92 7.17-11.34Q5.58-14.76 5.58-18.96L5.58-18.96Q5.58-22.62 7.26-26.19Q8.94-29.76 12.09-32.34Q15.24-34.92 19.68-35.64L19.68-35.64L20.28-34.80Q19.50-34.26 17.58-32.49Q15.66-30.72 14.22-27.72L14.22-27.72L27.42-33.30L27.42-15.12L16.86-10.68Q18.66-8.88 21.09-7.83Q23.52-6.78 26.40-6.78L26.40-6.78Q28.26-6.78 29.94-7.20Q31.62-7.62 33.06-8.40L33.06-8.40L33.06-18.60L29.10-22.50L33.06-26.46L33.06-33.90Q30.90-34.14 28.11-34.80Q25.32-35.46 22.53-36.18Q19.74-36.90 17.49-37.41Q15.24-37.92 14.16-37.92L14.16-37.92Q12.60-37.92 11.40-37.14Q10.20-36.36 10.20-34.80L10.20-34.80Q10.20-33.96 10.62-33.36Q11.04-32.76 11.64-32.46L11.64-32.46L11.10-31.62Q9.42-32.34 8.22-33.96Q7.02-35.58 7.02-37.98L7.02-37.98Q7.02-41.16 9.57-43.59Q12.12-46.02 16.50-46.02L16.50-46.02Q18.42-46.02 20.76-45.36Q23.10-44.70 25.59-43.86Q28.08-43.02 30.51-42.36Q32.94-41.70 34.98-41.70L34.98-41.70Q35.94-41.70 36.72-42.18Q37.50-42.66 37.50-43.68L37.50-43.68Q37.50-44.70 36.75-45.21Q36-45.72 34.92-45.93Q33.84-46.14 32.94-46.32L32.94-46.32L32.94-47.46Q37.14-47.76 40.05-45.72Q42.96-43.68 42.96-40.38L42.96-40.38Q42.96-37.14 40.50-35.46Q38.04-33.78 34.80-33.78L34.80-33.78L34.74-33.78L34.74-26.52L38.76-22.50L34.74-18.54L34.74-9.36Q36.96-10.86 38.55-12.93Q40.14-15.00 40.98-17.22L40.98-17.22L42.12-17.22Q42.18-16.98 42.18-16.68L42.18-16.68Q42.18-12.06 39.84-8.34Q37.50-4.62 33.57-2.43Q29.64-0.24 24.78-0.24ZM12.72-20.88L12.72-20.88Q12.72-15.78 15.72-11.94L15.72-11.94L19.68-13.62L19.68-28.26L13.44-25.62Q13.08-24.54 12.90-23.37Q12.72-22.20 12.72-20.88Z"/>
  </g>
</svg>