<?xml version="1.0" standalone="no"?>
<!DOCTYPE svg PUBLIC "-//W3C//DTD SVG 1.1//EN" "http://www.w3.org/Graphics/SVG/1.1/DTD/svg11.dtd">
<svg xmlns="http://www.w3.org/2000/svg" viewBox="-7.3 -55.660000000000004 69.02000000000001 66.32">
  <g >
    <path d="M37.02-5.64L27.72 0.66Q23.46 0.66 19.68-0.99Q15.90-2.64 13.02-5.46Q10.14-8.28 8.52-11.94Q6.90-15.60 6.90-19.74L6.90-19.74Q6.90-24.24 8.49-27.93Q10.08-31.62 12.72-34.32Q15.36-37.02 18.54-38.64L18.54-38.64Q17.34-38.10 15.90-38.10L15.90-38.10Q14.82-38.10 13.32-38.67Q11.82-39.24 10.17-39.63Q8.52-40.02 6.93-39.63Q5.34-39.24 4.14-37.38L4.14-37.38L2.70-36.78Q2.94-37.26 3.75-38.58Q4.56-39.90 5.82-41.43Q7.08-42.96 8.70-44.07Q10.32-45.18 12.18-45.18L12.18-45.18Q13.68-45.18 14.79-44.64Q15.90-44.10 17.01-43.59Q18.12-43.08 19.62-43.08L19.62-43.08Q21.30-43.08 22.47-43.89Q23.64-44.70 24.66-45.48L24.66-45.48L26.10-44.10Q25.86-43.92 24.72-43.08Q23.58-42.24 21.96-40.62Q20.34-39 18.78-36.60Q17.22-34.20 16.17-30.99Q15.12-27.78 15.12-23.70L15.12-23.70Q15.12-19.44 16.80-15.48L16.80-15.48L20.16-16.92L20.16-31.56Q20.16-33.72 20.52-35.22Q20.88-36.72 21.93-38.07Q22.98-39.42 25.08-41.07Q27.18-42.72 30.60-45.24L30.60-45.24L31.80-45.30L31.80-40.38L40.02-45.66L45.24-41.34L47.64-43.32L48.72-42L46.08-39.84L46.08-8.34L48.96-5.82L50.82-7.38L51.72-6.54L43.74 0L37.02-5.64ZM27.90-36.78L27.90-18.42L17.52-14.04Q19.32-10.62 22.50-8.25Q25.68-5.88 30.12-5.64L30.12-5.64L30.12-43.08Q28.98-42.18 28.41-40.77Q27.84-39.36 27.90-36.78L27.90-36.78ZM37.68-36.60L34.38-40.26L31.80-38.64L31.80-25.62L37.68-28.56L37.68-36.60ZM37.68-26.64L31.80-23.64L31.80-19.32L37.68-22.26L37.68-26.64ZM32.76-5.70L32.76-5.70L37.68-9L37.68-20.34L31.80-17.40L31.80-5.64Q32.28-5.64 32.76-5.70Z"/>
  </g>
</svg>