<?xml version="1.0" standalone="no"?>
<!DOCTYPE svg PUBLIC "-//W3C//DTD SVG 1.1//EN" "http://www.w3.org/Graphics/SVG/1.1/DTD/svg11.dtd">
<svg xmlns="http://www.w3.org/2000/svg" viewBox="-7.119999999999999 -55.18000000000001 60.08 70.26536458333334">
  <g >
    <path d="M12.36 3.84L12.12 4.98Q9.90 5.34 7.80 4.47Q5.70 3.60 4.38 1.77Q3.06-0.06 3.06-2.64L3.06-2.64Q3.06-6.18 5.58-8.28Q8.10-10.38 11.64-10.62L11.64-10.62L20.34-22.38L5.34-22.38L11.16-28.80L17.76-28.80L15.60-32.82Q14.04-35.76 13.08-37.29Q12.12-38.82 11.37-39.39Q10.62-39.96 9.66-39.96L9.66-39.96Q8.22-39.96 7.41-38.82Q6.60-37.68 6.42-36.48L6.42-36.48L2.88-36.48Q3.24-38.70 4.56-40.65Q5.88-42.60 8.01-43.83Q10.14-45.06 12.84-45.06L12.84-45.06Q16.38-45.06 18.63-42.96Q20.88-40.86 22.44-38.22L22.44-38.22L30.54-45.06L31.68-45.06Q32.46-44.04 33.75-43.29Q35.04-42.54 36.54-42.54L36.54-42.54Q38.10-42.54 39.27-43.29Q40.44-44.04 41.10-45.18L41.10-45.18L41.88-45.18Q42.24-42.60 41.16-40.47Q40.08-38.34 37.98-37.05Q35.88-35.76 33.18-35.76L33.18-35.76Q32.76-35.76 32.40-35.76L32.40-35.76L27.42-28.98L27.48-28.80L39.90-28.80L34.08-22.38L30.96-22.38L40.20-5.10L42.42-6.42L42.96-5.58L33.60 0.42L21.78-21.42L13.80-10.62Q13.92-10.56 14.16-10.56L14.16-10.56Q16.92-10.26 19.53-9.15Q22.14-8.04 24.42-6.42L24.42-6.42L26.46-8.70L27.30-7.86L19.56 0.78Q19.32 0.54 18.27-0.36Q17.22-1.26 15.66-2.04Q14.10-2.82 12.36-2.82L12.36-2.82Q10.74-2.82 9.57-1.92Q8.40-1.02 8.40 0.54L8.40 0.54Q8.40 2.16 9.63 3.12Q10.86 4.08 12.36 3.84L12.36 3.84ZM23.76-35.82L23.76-35.82L26.52-30.66L30.42-36Q27.18-36.60 25.02-38.64L25.02-38.64L23.04-37.08Q23.22-36.78 23.40-36.45Q23.58-36.12 23.76-35.82Z"/>
  </g>
</svg>