<?xml version="1.0" standalone="no"?>
<!DOCTYPE svg PUBLIC "-//W3C//DTD SVG 1.1//EN" "http://www.w3.org/Graphics/SVG/1.1/DTD/svg11.dtd">
<svg xmlns="http://www.w3.org/2000/svg" viewBox="-6.88 -55.18000000000001 59.300000000000004 80.42000000000002">
  <g >
    <path d="M7.68-14.70L7.38-13.86Q5.64-14.34 4.38-15.84Q3.12-17.34 3.12-19.44L3.12-19.44Q3.12-22.26 5.25-24.24Q7.38-26.22 10.38-26.22L10.38-26.22Q10.62-26.22 10.80-26.22L10.80-26.22L10.80-36.72Q10.80-37.20 10.68-38.04Q10.56-38.88 10.08-39.57Q9.60-40.26 8.52-40.26L8.52-40.26Q6.06-40.26 6.06-37.38L6.06-37.38L4.62-37.38Q4.74-40.32 6.81-42.63Q8.88-44.94 12.36-44.94L12.36-44.94Q15.60-44.94 17.43-42.75Q19.26-40.56 19.26-36.84L19.26-36.84L19.26-4.38Q20.28-4.14 21.24-3.87Q22.20-3.60 23.16-3.42L23.16-3.42L23.16-44.58L24.84-44.58L24.84-38.58L33-45.18L39.06-39.90L41.34-41.76L42.42-40.44L39.36-37.98L39.36-8.82Q39.36-6.84 38.79-4.92Q38.22-3.00 36.60-1.77Q34.98-0.54 31.86-0.54L31.86-0.54Q29.46-0.54 26.76-1.20Q24.06-1.86 21.18-2.52Q18.30-3.18 15.36-3.18L15.36-3.18Q13.20-3.18 11.19-2.25Q9.18-1.32 9.18 0.96L9.18 0.96Q9.18 2.76 10.59 3.66Q12.00 4.56 13.74 4.56L13.74 4.56Q15.72 4.56 18.30 3.84Q20.88 3.12 24.09 2.40Q27.30 1.68 31.26 1.68L31.26 1.68Q34.68 1.68 37.23 3.27Q39.78 4.86 39.78 8.04L39.78 8.04Q39.78 10.56 38.25 12.18Q36.72 13.80 34.92 14.58L34.92 14.58Q33.90 15.06 32.70 15.24L32.70 15.24L32.46 14.10Q33.24 13.92 33.84 13.32Q34.44 12.72 34.44 11.76L34.44 11.76Q34.44 10.44 33.42 9.81Q32.40 9.18 31.08 9.18L31.08 9.18Q29.10 9.18 26.13 9.84Q23.16 10.50 19.98 11.16Q16.80 11.82 14.10 11.82L14.10 11.82Q9.54 11.82 7.29 9.36Q5.04 6.90 5.04 3.90L5.04 3.90Q5.04 1.32 6.57-0.87Q8.10-3.06 10.80-4.14L10.80-4.14L10.80-18.06L9.78-18.06Q8.64-18.06 7.77-17.67Q6.90-17.28 6.90-16.14L6.90-16.14Q6.90-15.24 7.68-14.70L7.68-14.70ZM31.02-35.94L27.78-38.76L24.84-36.48L24.84-26.16Q26.22-25.20 27.96-25.23Q29.70-25.26 31.02-26.40L31.02-26.40L31.02-35.94ZM24.84-24.42L24.84-19.08Q26.22-20.04 27.93-20.04Q29.64-20.04 31.02-18.90L31.02-18.90L31.02-24.60Q29.70-23.58 27.99-23.52Q26.28-23.46 24.84-24.42L24.84-24.42ZM31.02-11.88L31.02-11.88L31.02-17.16Q29.70-18.24 27.96-18.30Q26.22-18.36 24.84-17.34L24.84-17.34L24.84-3.24L24.96-3.24Q27.60-3.24 29.31-5.04Q31.02-6.84 31.02-11.88Z"/>
  </g>
</svg>