<?xml version="1.0" standalone="no"?>
<!DOCTYPE svg PUBLIC "-//W3C//DTD SVG 1.1//EN" "http://www.w3.org/Graphics/SVG/1.1/DTD/svg11.dtd">
<svg xmlns="http://www.w3.org/2000/svg" viewBox="-6.02734375 -63.3671875 62.890625 73.3671875">
  <g >
    <path d="M3.97 0L3.97-9.63L9.42-9.63L9.42-43.63L3.97-43.63L3.97-53.37L29.95-53.30Q33.57-53.30 36.58-52.01Q39.59-50.73 41.77-48.53Q43.95-46.34 45.16-43.40Q46.37-40.46 46.37-37.16L46.37-37.16Q46.37-33.29 45.02-30.76Q43.66-28.23 41.17-26.68L41.17-26.68Q43.80-25.00 45.33-22.52Q46.86-20.04 46.86-16.49L46.86-16.49Q46.86-12.87 45.62-9.84Q44.37-6.82 42.21-4.62Q40.04-2.43 37.09-1.21Q34.14 0 30.73 0L30.73 0L3.97 0ZM29.95-22.04L21.09-22.04L21.09-9.63L29.95-9.63Q30.97-9.63 31.87-10.16Q32.77-10.69 33.42-11.55Q34.07-12.41 34.45-13.55Q34.84-14.70 34.84-15.93L34.84-15.93Q34.84-17.23 34.45-18.33Q34.07-19.44 33.40-20.27Q32.73-21.09 31.83-21.57Q30.94-22.04 29.95-22.04L29.95-22.04ZM29.46-43.63L21.09-43.63L21.09-31.68L29.46-31.68Q30.45-31.68 31.32-32.17Q32.20-32.66 32.85-33.49Q33.50-34.31 33.89-35.35Q34.28-36.39 34.28-37.51L34.28-37.51Q34.28-38.60 33.89-39.69Q33.50-40.78 32.85-41.66Q32.20-42.54 31.32-43.08Q30.45-43.63 29.46-43.63L29.46-43.63Z"/>
  </g>
</svg>