<?xml version="1.0" standalone="no"?>
<!DOCTYPE svg PUBLIC "-//W3C//DTD SVG 1.1//EN" "http://www.w3.org/Graphics/SVG/1.1/DTD/svg11.dtd">
<svg xmlns="http://www.w3.org/2000/svg" viewBox="-7.6796875 -64.28125 68.7265625 75.23046875">
  <g >
    <path d="M49.75-37.09L38.88-37.09Q36.91-39.90 35.33-41.08Q33.75-42.26 31.92-42.77Q30.09-43.28 28.09-43.28L28.09-43.28Q25.14-43.28 22.61-41.96Q20.07-40.64 18.23-38.37Q16.38-36.11 15.33-33.10Q14.27-30.09 14.27-26.72L14.27-26.72Q14.27-23.31 15.31-20.30Q16.35-17.30 18.18-15.05Q20.00-12.80 22.54-11.48Q25.07-10.16 28.09-10.16L28.09-10.16Q30.20-10.16 32.03-10.85Q33.86-11.53 35.35-12.66Q36.84-13.78 37.97-15.24Q39.09-16.70 39.73-18.28L39.73-18.28L51.05-15.12Q49.96-11.67 47.85-8.74Q45.74-5.80 42.77-3.66Q39.80-1.51 36.09-0.28Q32.38 0.95 28.09 0.95L28.09 0.95Q24.47 0.95 21.16-0.04Q17.86-1.02 14.99-2.81Q12.13-4.61 9.79-7.14Q7.45-9.67 5.80-12.74Q4.15-15.82 3.23-19.35Q2.32-22.89 2.32-26.72L2.32-26.72Q2.32-32.45 4.32-37.46Q6.33-42.47 9.81-46.21Q13.29-49.96 17.98-52.12Q22.68-54.28 28.09-54.28L28.09-54.28Q32.41-54.28 35.37-53.21Q38.32-52.14 41.87-48.97L41.87-48.97L49.75-48.97L49.75-37.09Z"/>
  </g>
</svg>