<?xml version="1.0" standalone="no"?>
<!DOCTYPE svg PUBLIC "-//W3C//DTD SVG 1.1//EN" "http://www.w3.org/Graphics/SVG/1.1/DTD/svg11.dtd">
<svg xmlns="http://www.w3.org/2000/svg" viewBox="-7.1171875 -63.296875 66.58203125 73.296875">
  <g >
    <path d="M2.88-43.63L2.88-53.30L23.34-53.30Q27-53.30 30.36-52.35Q33.71-51.40 36.62-49.68Q39.52-47.95 41.89-45.54Q44.26-43.14 45.95-40.18Q47.64-37.23 48.55-33.82Q49.46-30.41 49.46-26.72L49.46-26.72Q49.46-23.03 48.55-19.62Q47.64-16.21 45.95-13.24Q44.26-10.27 41.89-7.82Q39.52-5.38 36.62-3.64Q33.71-1.90 30.36-0.95Q27 0 23.34 0L23.34 0L2.88 0L2.88-9.63L7.14-9.63L7.14-43.63L2.88-43.63ZM23.27-43.63L18.81-43.63L18.81-9.63L23.27-9.63Q26.12-9.63 28.65-10.97Q31.18-12.30 33.05-14.61Q34.91-16.91 36-20.02Q37.09-23.13 37.09-26.72L37.09-26.72Q37.09-30.27 36-33.36Q34.91-36.46 33.05-38.74Q31.18-41.03 28.65-42.33Q26.12-43.63 23.27-43.63L23.27-43.63Z"/>
  </g>
</svg>