<?xml version="1.0" standalone="no"?>
<!DOCTYPE svg PUBLIC "-//W3C//DTD SVG 1.1//EN" "http://www.w3.org/Graphics/SVG/1.1/DTD/svg11.dtd">
<svg xmlns="http://www.w3.org/2000/svg" viewBox="-7.6796875 -64.2109375 70.80078125 74.6339111328125">
  <g >
    <path d="M53.12 0L42.61 0L42.61-9.14Q40.43-5.31 38.36-3.52Q36.28-1.72 33.66-0.63Q31.04 0.46 26.65 0.42L26.65 0.42Q24.47 0.39 22.29-0.09Q20.11-0.56 18.07-1.42Q16.03-2.29 14.08-3.50Q12.13-4.71 10.55-6.29L10.55-6.29Q6.64-10.23 4.48-15.42Q2.32-20.60 2.32-26.72L2.32-26.72Q2.32-30.48 3.23-34.00Q4.15-37.51 5.80-40.57Q7.45-43.63 9.79-46.14Q12.13-48.66 14.99-50.45Q17.86-52.24 21.16-53.23Q24.47-54.21 28.09-54.21L28.09-54.21Q32.24-54.21 35.30-53.10Q38.36-52.00 41.87-48.97L41.87-48.97L49.75-48.97L49.75-37.09L38.88-37.09Q37.27-39.59 35.84-40.71Q34.42-41.84 32.75-42.57Q31.08-43.31 28.09-43.31L28.09-43.31Q25.14-43.31 22.61-41.98Q20.07-40.64 18.23-38.37Q16.38-36.11 15.33-33.03Q14.27-29.95 14.27-26.72L14.27-26.72Q14.27-23.52 15.22-20.64Q16.17-17.75 18.11-15.45Q20.04-13.15 22.61-11.92Q25.17-10.69 28.09-10.69L28.09-10.69Q31.82-10.69 34.59-12.87Q37.37-15.05 38.60-18.81L38.60-18.81L28.44-18.81L28.44-28.44L53.12-28.44L53.12 0Z"/>
  </g>
</svg>