<?xml version="1.0" standalone="no"?>
<!DOCTYPE svg PUBLIC "-//W3C//DTD SVG 1.1//EN" "http://www.w3.org/Graphics/SVG/1.1/DTD/svg11.dtd">
<svg xmlns="http://www.w3.org/2000/svg" viewBox="-7.6796875 -64.28125 71.609375 75.23046875">
  <g >
    <path d="M28.09 0.95L28.09 0.95Q24.47 0.95 21.16-0.04Q17.86-1.02 14.99-2.81Q12.13-4.61 9.79-7.12Q7.45-9.63 5.80-12.71Q4.15-15.79 3.23-19.30Q2.32-22.82 2.32-26.65L2.32-26.65Q2.32-30.48 3.23-34.01Q4.15-37.55 5.80-40.62Q7.45-43.70 9.79-46.21Q12.13-48.73 14.99-50.52Q17.86-52.31 21.16-53.30Q24.47-54.28 28.09-54.28L28.09-54.28Q31.71-54.28 35.03-53.30Q38.36-52.31 41.22-50.52Q44.09-48.73 46.42-46.21Q48.76-43.70 50.43-40.62Q52.10-37.55 53.02-34.01Q53.93-30.48 53.93-26.65L53.93-26.65Q53.93-22.85 53.02-19.32Q52.10-15.79 50.43-12.71Q48.76-9.63 46.42-7.12Q44.09-4.61 41.22-2.81Q38.36-1.02 35.03-0.04Q31.71 0.95 28.09 0.95ZM28.09-10.09L28.09-10.09Q31.15-10.09 33.70-11.41Q36.25-12.73 38.07-14.99Q39.90-17.26 40.90-20.27Q41.91-23.27 41.91-26.65L41.91-26.65Q41.91-30.06 40.89-33.08Q39.87-36.11 38.02-38.37Q36.18-40.64 33.64-41.96Q31.11-43.28 28.09-43.28L28.09-43.28Q25.07-43.28 22.54-41.96Q20.00-40.64 18.18-38.37Q16.35-36.11 15.31-33.08Q14.27-30.06 14.27-26.65L14.27-26.65Q14.27-23.27 15.31-20.27Q16.35-17.26 18.18-14.99Q20.00-12.73 22.54-11.41Q25.07-10.09 28.09-10.09Z"/>
  </g>
</svg>