<?xml version="1.0" standalone="no"?>
<!DOCTYPE svg PUBLIC "-//W3C//DTD SVG 1.1//EN" "http://www.w3.org/Graphics/SVG/1.1/DTD/svg11.dtd">
<svg xmlns="http://www.w3.org/2000/svg" viewBox="-6.02734375 -63.296875 63.41796875 73.296875">
  <g >
    <path d="M3.97-43.63L3.97-53.30L28.58-53.30Q32.70-53.30 36.14-52.01Q39.59-50.73 42.08-48.55Q44.58-46.37 45.98-43.52Q47.39-40.68 47.39-37.58L47.39-37.58Q47.39-33.86 46.28-30.60Q45.18-27.35 42.86-24.96Q40.54-22.57 36.98-21.18Q33.43-19.79 28.58-19.79L28.58-19.79L21.16-19.79L21.16-9.63L26.05-9.63L26.05 0L3.97 0L3.97-9.63L9.49-9.63L9.49-43.63L3.97-43.63ZM25.98-43.63L21.16-43.63L21.16-29.32L25.98-29.32Q29.99-29.32 32.34-31.01Q34.70-32.70 34.70-36.35L34.70-36.35Q34.70-39.76 32.48-41.70Q30.27-43.63 25.98-43.63L25.98-43.63Z"/>
  </g>
</svg>