<?xml version="1.0" standalone="no"?>
<!DOCTYPE svg PUBLIC "-//W3C//DTD SVG 1.1//EN" "http://www.w3.org/Graphics/SVG/1.1/DTD/svg11.dtd">
<svg xmlns="http://www.w3.org/2000/svg" viewBox="-7.6796875 -64.28125 72.98046875 88.16796875">
  <g >
    <path d="M23.10 9.28L23.17 0.42Q18.67-0.49 14.85-2.94Q11.04-5.38 8.24-8.96Q5.45-12.55 3.88-17.07Q2.32-21.59 2.32-26.65L2.32-26.65Q2.32-30.48 3.23-34.01Q4.15-37.55 5.80-40.62Q7.45-43.70 9.79-46.21Q12.13-48.73 14.99-50.52Q17.86-52.31 21.16-53.30Q24.47-54.28 28.09-54.28L28.09-54.28Q31.71-54.28 35.03-53.30Q38.36-52.31 41.22-50.52Q44.09-48.73 46.42-46.21Q48.76-43.70 50.43-40.62Q52.10-37.55 53.02-34.01Q53.93-30.48 53.93-26.65L53.93-26.65Q53.93-21.52 52.31-16.95Q50.70-12.38 47.83-8.75Q44.96-5.13 41.03-2.71Q37.09-0.28 32.48 0.53L32.48 0.53Q33.57 0.98 34.65 1.53Q35.72 2.07 36.81 2.55Q37.90 3.02 38.97 3.36Q40.04 3.69 41.17 3.73L41.17 3.73Q42.26 3.73 43.29 3.45Q44.33 3.16 45.18 2.57Q46.02 1.97 46.63 1.02Q47.25 0.07 47.46-1.30L47.46-1.30L55.30 2.60Q54.98 5.17 53.84 7.24Q52.70 9.32 50.91 10.79Q49.11 12.27 46.83 13.08Q44.54 13.89 41.98 13.89L41.98 13.89Q39.90 13.89 37.81 13.10Q35.72 12.30 33.77 11.37Q31.82 10.44 30.09 9.65Q28.37 8.86 27.07 8.86L27.07 8.86Q26.51 8.86 26.07 8.84Q25.63 8.82 25.21 8.84Q24.79 8.86 24.28 8.95Q23.77 9.04 23.10 9.28L23.10 9.28ZM28.09-10.09L28.09-10.09Q31.15-10.09 33.70-11.41Q36.25-12.73 38.07-14.99Q39.90-17.26 40.90-20.27Q41.91-23.27 41.91-26.65L41.91-26.65Q41.91-30.06 40.89-33.08Q39.87-36.11 38.02-38.37Q36.18-40.64 33.64-41.96Q31.11-43.28 28.09-43.28L28.09-43.28Q25.07-43.28 22.54-41.96Q20.00-40.64 18.18-38.37Q16.35-36.11 15.31-33.08Q14.27-30.06 14.27-26.65L14.27-26.65Q14.27-23.27 15.31-20.27Q16.35-17.26 18.18-14.99Q20.00-12.73 22.54-11.41Q25.07-10.09 28.09-10.09Z"/>
  </g>
</svg>