<?xml version="1.0" standalone="no"?>
<!DOCTYPE svg PUBLIC "-//W3C//DTD SVG 1.1//EN" "http://www.w3.org/Graphics/SVG/1.1/DTD/svg11.dtd">
<svg xmlns="http://www.w3.org/2000/svg" viewBox="-6.02734375 -63.296875 68.375 73.296875">
  <g >
    <path d="M3.97-43.63L3.97-53.30L32.17-53.30Q36.28-53.30 39.52-52.07Q42.75-50.84 44.96-48.78Q47.18-46.72 48.36-44.00Q49.54-41.27 49.54-38.32L49.54-38.32Q49.54-35.61 48.96-33.57Q48.38-31.54 47.27-29.95Q46.16-28.37 44.54-27.16Q42.93-25.95 40.85-24.96L40.85-24.96Q42.64-24.05 44.02-22.17Q45.39-20.29 46.09-17.30L46.09-17.30L47.88-10.37L52.28-10.37L52.35 0L36.88 0L34.77-12.66Q34.45-14.91 33.80-16.54Q33.15-18.18 32.06-19.21Q30.97-20.25 29.41-20.74Q27.84-21.23 25.70-21.23L25.70-21.23L21.16-21.23L21.16-9.63L26.05-9.63L26.05 0L3.97 0L3.97-9.63L9.49-9.63L9.49-43.63L3.97-43.63ZM28.16-43.63L21.16-43.63L21.16-30.73L28.16-30.73Q30.16-30.73 31.76-31.10Q33.36-31.46 34.51-32.26Q35.65-33.05 36.26-34.24Q36.88-35.44 36.88-37.09L36.88-37.09Q36.88-40.18 34.66-41.91Q32.45-43.63 28.16-43.63L28.16-43.63Z"/>
  </g>
</svg>