<?xml version="1.0" standalone="no"?>
<!DOCTYPE svg PUBLIC "-//W3C//DTD SVG 1.1//EN" "http://www.w3.org/Graphics/SVG/1.1/DTD/svg11.dtd">
<svg xmlns="http://www.w3.org/2000/svg" viewBox="-8.55859375 -64.87890625 60.88671875 75.96875">
  <g >
    <path d="M29.60-35.19L29.60-38.29Q29.43-39.52 28.74-40.61Q28.05-41.70 26.98-42.49Q25.91-43.28 24.56-43.73Q23.20-44.19 21.73-44.19L21.73-44.19Q20.39-44.19 19.23-43.91Q18.07-43.63 17.21-43.05Q16.35-42.47 15.84-41.55Q15.33-40.64 15.33-39.38L15.33-39.38Q15.33-37.79 16.01-36.86Q16.70-35.93 17.77-35.33Q18.84-34.73 20.14-34.38Q21.45-34.03 22.68-33.61L22.68-33.61L32.34-30.38Q34.35-29.67 36.11-28.44Q37.86-27.21 39.15-25.45Q40.43-23.70 41.17-21.41Q41.91-19.13 41.91-16.28L41.91-16.28Q41.91-12.41 40.48-9.21Q39.06-6.01 36.49-3.73Q33.93-1.44 30.34-0.18Q26.75 1.09 22.39 1.09L22.39 1.09Q19.34 1.09 16.61 0.40Q13.89-0.28 11.64-1.58Q9.39-2.88 7.70-4.69Q6.01-6.50 5.06-8.79L5.06-8.79L1.44-8.79L1.44-19.37L14.17-19.37L14.17-17.19Q14.17-15.61 14.68-14.27Q15.19-12.94 16.21-11.95Q17.23-10.97 18.77-10.42Q20.32-9.88 22.39-9.88L22.39-9.88Q25.56-9.88 27.21-11.34Q28.86-12.80 28.86-15.40L28.86-15.40Q28.86-16.73 28.28-17.63Q27.70-18.53 26.79-19.14Q25.88-19.76 24.75-20.18Q23.63-20.60 22.54-20.95L22.54-20.95L14.48-23.55Q12.20-24.26 10.07-25.52Q7.95-26.79 6.31-28.69Q4.68-30.59 3.71-33.13Q2.74-35.68 2.74-38.95L2.74-38.95Q2.74-42.75 4.15-45.72Q5.55-48.69 8.09-50.73Q10.62-52.77 14.10-53.82Q17.58-54.88 21.73-54.88L21.73-54.88Q25.00-54.88 27.77-54.12Q30.55-53.37 32.75-52.10Q34.95-50.84 36.47-49.20Q38.00-47.57 38.81-45.81L38.81-45.81L42.33-45.81L42.33-35.19L29.60-35.19Z"/>
  </g>
</svg>