<?xml version="1.0" standalone="no"?>
<!DOCTYPE svg PUBLIC "-//W3C//DTD SVG 1.1//EN" "http://www.w3.org/Graphics/SVG/1.1/DTD/svg11.dtd">
<svg xmlns="http://www.w3.org/2000/svg" viewBox="-8.20703125 -63.296875 70.625 74">
  <g >
    <path d="M1.79-43.63L1.79-53.30L23.17-53.30L23.17-43.63L18.28-43.63L18.28-21.52Q18.28-18.49 18.97-16.38Q19.65-14.27 20.88-12.94Q22.11-11.60 23.80-10.99Q25.49-10.37 27.49-10.37L27.49-10.37Q29.57-10.37 31.27-10.90Q32.98-11.43 34.19-12.71Q35.40-13.99 36.05-16.14Q36.70-18.28 36.70-21.52L36.70-21.52L36.70-43.63L31.04-43.63L31.04-53.30L52.42-53.30L52.42-43.63L48.16-43.63L48.16-22.89Q48.16-17.26 46.55-12.88Q44.93-8.51 42.10-5.48Q39.27-2.46 35.46-0.88Q31.64 0.70 27.28 0.70L27.28 0.70Q22.96 0.70 19.20-0.86Q15.43-2.43 12.64-5.40Q9.84-8.37 8.23-12.62Q6.61-16.88 6.61-22.25L6.61-22.25L6.61-43.63L1.79-43.63Z"/>
  </g>
</svg>