<?xml version="1.0" standalone="no"?>
<!DOCTYPE svg PUBLIC "-//W3C//DTD SVG 1.1//EN" "http://www.w3.org/Graphics/SVG/1.1/DTD/svg11.dtd">
<svg xmlns="http://www.w3.org/2000/svg" viewBox="-10 -67.60000000000001 72.70400000000001 77.60000000000001">
  <g >
    <path d="M29.23-27.58L29.23-27.58Q27.50-28.37 26.35-28.37L26.35-28.37Q25.20-28.37 23.47-27.58L23.47-27.58Q23.47-32.62 26.35-37.58L26.35-37.58Q29.23-32.62 29.23-27.58ZM42.77-1.44L42.77-1.44Q44.28 0 46.66 0L46.66 0Q49.46 0 52.70-1.80L52.70-1.80Q42.34-12.24 42.34-24.84L42.34-24.84Q42.34-27.14 42.70-28.80L42.70-28.80Q33.98-39.46 33.98-50.04L33.98-50.04Q33.98-53.78 35.28-55.73L35.28-55.73Q33.26-57.60 30.82-57.60L30.82-57.60Q28.44-57.60 26.35-55.51L26.35-55.51Q24.26-57.60 21.82-57.60L21.82-57.60Q19.44-57.60 17.42-55.73L17.42-55.73Q18.72-53.78 18.72-50.04L18.72-50.04Q18.72-39.46 10.01-28.80L10.01-28.80Q10.37-27.14 10.37-24.84L10.37-24.84Q10.37-12.24 0-1.80L0-1.80Q3.17 0 6.05 0L6.05 0Q8.42 0 9.94-1.44L9.94-1.44Q13.46 0 15.91 0L15.91 0Q18.29 0 18.94-1.44L18.94-1.44Q17.21-5.33 17.21-9.07L17.21-9.07Q17.21-13.75 19.76-16.78Q22.32-19.80 26.35-19.80L26.35-19.80Q30.31-19.80 32.90-16.78Q35.50-13.75 35.50-9.07L35.50-9.07Q35.50-5.33 33.70-1.44L33.70-1.44Q34.42 0 36.72 0L36.72 0Q39.24 0 42.77-1.44Z"/>
  </g>
</svg>