<?xml version="1.0" standalone="no"?>
<!DOCTYPE svg PUBLIC "-//W3C//DTD SVG 1.1//EN" "http://www.w3.org/Graphics/SVG/1.1/DTD/svg11.dtd">
<svg xmlns="http://www.w3.org/2000/svg" viewBox="-10 -67.60000000000001 58.52 77.60000000000001">
  <g >
    <path d="M23.54-21.31L23.54-21.31Q25.56-18.22 25.56-15.41L25.56-15.41Q25.56-13.03 24.16-11.56Q22.75-10.08 20.66-10.08L20.66-10.08L20.38-10.08Q16.78-10.08 15.55-12.02L15.55-12.02Q14.54-13.46 14.54-17.06L14.54-17.06L14.54-22.97Q14.54-24.26 14.90-25.34L14.90-25.34Q15.55-27.94 17.35-28.80L17.35-28.80Q14.69-30.10 14.54-34.63L14.54-34.63L14.54-40.54Q14.54-44.14 15.55-45.58L15.55-45.58Q16.78-47.52 20.38-47.52L20.38-47.52L20.66-47.52Q22.75-47.52 24.16-46.04Q25.56-44.57 25.56-42.19L25.56-42.19Q25.56-39.38 23.54-36.29L23.54-36.29Q24.55-35.28 27.22-35.28L27.22-35.28Q30.82-35.28 32.04-37.73L32.04-37.73Q33.70-36.65 35.35-36.65L35.35-36.65Q37.22-36.65 38.52-38.09L38.52-38.09Q36.50-39.89 36.94-44.28L36.94-44.28Q36.58-48.17 35.06-50.90L35.06-50.90Q31.25-57.60 21.74-57.60L21.74-57.60Q20.66-57.60 19.44-57.53L19.44-57.53Q14.62-57.17 11.16-55.44L11.16-55.44Q2.81-51.26 2.81-40.90L2.81-40.90L2.81-34.63Q2.81-33.34 2.52-32.26L2.52-32.26Q1.80-29.66 0-28.80L0-28.80Q2.66-27.50 2.81-22.97L2.81-22.97L2.81-16.70Q2.74-15.70 2.74-14.69L2.74-14.69Q2.74-5.54 11.09-1.94L11.09-1.94Q14.54-0.43 19.44-0.07L19.44-0.07Q20.66 0 21.74 0L21.74 0Q31.25 0 35.06-6.70L35.06-6.70Q36.58-9.43 36.94-13.32L36.94-13.32Q36.50-17.71 38.52-19.51L38.52-19.51Q37.22-20.95 35.35-20.95L35.35-20.95Q33.70-20.95 32.04-19.87L32.04-19.87Q30.82-22.32 27.22-22.32L27.22-22.32Q24.55-22.32 23.54-21.31Z"/>
  </g>
</svg>