<?xml version="1.0" standalone="no"?>
<!DOCTYPE svg PUBLIC "-//W3C//DTD SVG 1.1//EN" "http://www.w3.org/Graphics/SVG/1.1/DTD/svg11.dtd">
<svg xmlns="http://www.w3.org/2000/svg" viewBox="-10 -67.60000000000001 60.248000000000005 77.60146938775512">
  <g >
    <path d="M32.54-3.38L32.54-3.38Q26.50 0.07 19.44 0L19.44 0Q14.62-0.29 11.09-1.80L11.09-1.80Q2.74-5.47 2.74-14.62L2.74-14.62Q2.74-15.62 2.88-16.63L2.88-16.63L2.88-22.90Q2.81-24.19 2.52-25.27L2.52-25.27Q1.80-27.86 0-28.73L0-28.73Q2.66-30.10 2.88-34.63L2.88-34.63L2.88-40.90Q2.88-51.26 11.16-55.44L11.16-55.44Q14.62-57.17 19.44-57.53L19.44-57.53Q20.66-57.60 21.82-57.60L21.82-57.60Q31.32-57.60 35.06-50.90L35.06-50.90Q36.65-48.17 37.01-44.21L37.01-44.21Q36.58-39.82 38.59-38.09L38.59-38.09Q37.30-36.58 35.42-36.58L35.42-36.58Q33.77-36.58 32.11-37.66L32.11-37.66Q30.82-35.21 27.22-35.21L27.22-35.21Q24.55-35.21 23.54-36.29L23.54-36.29Q25.63-39.38 25.63-42.19L25.63-42.19Q25.63-44.57 24.19-46.01Q22.75-47.45 20.74-47.45L20.74-47.45L20.38-47.45Q16.85-47.45 15.55-45.58L15.55-45.58Q14.54-44.06 14.54-40.54L14.54-40.54L14.54-34.63Q14.62-33.26 14.90-32.18L14.90-32.18Q15.62-29.66 17.35-28.73L17.35-28.73Q14.76-27.43 14.54-22.90L14.54-22.90L14.54-16.99Q14.54-13.39 15.55-11.95L15.55-11.95Q16.85-10.01 20.38-10.01L20.38-10.01L20.74-10.01Q23.62-10.01 24.70-11.88L24.70-11.88Q25.56-13.39 25.70-17.50L25.70-17.50Q25.85-21.31 24.41-21.31L24.41-21.31Q23.62-21.31 22.68-20.38L22.68-20.38Q21.60-21.38 21.60-23.04L21.60-23.04Q21.60-24.34 22.32-25.78L22.32-25.78Q21.89-26.86 21.24-30.02L21.24-30.02Q23.47-29.16 24.34-29.16L24.34-29.16Q24.91-29.16 26.78-29.95L26.78-29.95Q27.72-30.24 28.94-30.24L28.94-30.24Q31.03-30.24 32.90-29.16L32.90-29.16Q34.20-30.46 36.14-30.46L36.14-30.46Q38.16-30.46 40.25-29.23L40.25-29.23Q36.58-25.27 37.01-22.25L37.01-22.25L37.01-13.25Q37.01-8.93 39.10-6.84L39.10-6.84Q36.58-6.41 35.50-5.62L35.50-5.62Q34.06-4.46 32.54-3.38Z"/>
  </g>
</svg>