<?xml version="1.0" standalone="no"?>
<!DOCTYPE svg PUBLIC "-//W3C//DTD SVG 1.1//EN" "http://www.w3.org/Graphics/SVG/1.1/DTD/svg11.dtd">
<svg xmlns="http://www.w3.org/2000/svg" viewBox="-10 -67.60000000000001 38.648 77.60000000000001">
  <g >
    <path d="M9.29-2.09L9.29-2.09Q7.06 0 4.54 0L4.54 0Q2.09 0 0-1.87L0-1.87Q2.95-8.21 2.95-16.34L2.95-16.34Q2.95-24.84 0-28.80L0-28.80Q2.95-32.76 2.95-41.26L2.95-41.26Q2.95-49.39 0-55.73L0-55.73Q2.09-57.60 4.54-57.60L4.54-57.60Q7.06-57.60 9.29-55.51L9.29-55.51Q11.59-57.60 14.11-57.60L14.11-57.60Q16.56-57.60 18.65-55.73L18.65-55.73Q15.70-49.39 15.70-41.26L15.70-41.26Q15.70-32.76 18.65-28.80L18.65-28.80Q15.70-24.84 15.70-16.34L15.70-16.34Q15.70-8.21 18.65-1.87L18.65-1.87Q16.56 0 14.11 0L14.11 0Q11.59 0 9.29-2.09Z"/>
  </g>
</svg>