<?xml version="1.0" standalone="no"?>
<!DOCTYPE svg PUBLIC "-//W3C//DTD SVG 1.1//EN" "http://www.w3.org/Graphics/SVG/1.1/DTD/svg11.dtd">
<svg xmlns="http://www.w3.org/2000/svg" viewBox="-10 -67.60000000000001 77.38400000000001 77.60000000000001">
  <g >
    <path d="M28.73-1.80L28.73-1.80Q30.46 0 32.47 0L32.47 0Q34.63 0 36.58-1.80L36.58-1.80Q34.85-6.98 34.85-10.73L34.85-10.73Q34.85-15.41 38.74-21.53L38.74-21.53Q37.80-23.83 37.80-25.85L37.80-25.85Q37.80-28.37 39.38-31.68L39.38-31.68Q40.25-33.41 43.78-39.53L43.78-39.53L43.78-16.70Q43.70-13.61 43.34-11.02L43.34-11.02Q42.55-4.75 40.39-1.80L40.39-1.80Q42.55 0 45.07 0L45.07 0Q47.38 0 49.46-1.80L49.46-1.80Q51.12-0.07 53.14-0.07L53.14-0.07Q55.37-0.07 57.38-1.94L57.38-1.94Q54.43-8.28 54.43-16.42L54.43-16.42Q54.43-24.84 57.38-28.87L57.38-28.87Q54.29-33.05 54.29-41.62L54.29-41.62Q54.29-47.74 56.23-52.85L56.23-52.85L57.38-55.73Q54.00-57.46 50.98-57.46L50.98-57.46Q48.31-57.46 45.00-55.94L45.00-55.94Q42.34-57.60 38.66-57.60L38.66-57.60Q36.36-57.60 34.13-56.95L34.13-56.95Q32.26-56.45 31.82-55.94L31.82-55.94Q33.55-52.99 33.55-48.10L33.55-48.10Q33.55-42.12 32.11-38.88L32.11-38.88L28.73-28.73L25.34-38.88Q23.83-42.12 23.83-48.10L23.83-48.10Q23.83-52.99 25.63-55.94L25.63-55.94Q25.13-56.45 23.26-56.95L23.26-56.95Q21.02-57.60 18.72-57.60L18.72-57.60Q15.05-57.60 12.38-55.94L12.38-55.94Q9.07-57.46 6.41-57.46L6.41-57.46Q3.38-57.46 0-55.73L0-55.73L1.15-52.85Q3.10-47.74 3.10-41.62L3.10-41.62Q3.10-33.05 0-28.87L0-28.87Q2.95-24.84 2.95-16.42L2.95-16.42Q2.95-8.28 0-1.94L0-1.94Q2.02-0.07 4.25-0.07L4.25-0.07Q6.26-0.07 7.99-1.80L7.99-1.80Q10.01 0 12.31 0L12.31 0Q14.83 0 16.99-1.80L16.99-1.80Q13.82-6.19 13.61-16.70L13.61-16.70L13.61-39.53Q17.14-33.41 18.00-31.68L18.00-31.68Q19.58-28.37 19.58-25.85L19.58-25.85Q19.58-23.83 18.65-21.53L18.65-21.53Q22.54-15.41 22.54-10.73L22.54-10.73Q22.54-6.98 20.88-1.80L20.88-1.80Q22.75 0 24.91 0L24.91 0Q27.00 0 28.73-1.80Z"/>
  </g>
</svg>