<?xml version="1.0" standalone="no"?>
<!DOCTYPE svg PUBLIC "-//W3C//DTD SVG 1.1//EN" "http://www.w3.org/Graphics/SVG/1.1/DTD/svg11.dtd">
<svg xmlns="http://www.w3.org/2000/svg" viewBox="-10 -67.60000000000001 62.84 77.60000000000001">
  <g >
    <path d="M27.00-34.56L18.22-45.79Q16.42-48.10 16.42-51.05L16.42-51.05Q16.42-53.35 17.50-55.73L17.50-55.73Q15.55-57.60 13.25-57.60L13.25-57.60Q10.87-57.60 8.78-55.51L8.78-55.51Q6.62-57.60 4.25-57.60L4.25-57.60Q1.94-57.60 0-55.73L0-55.73L1.15-52.85Q3.10-47.74 3.10-41.54L3.10-41.54Q3.10-33.05 0-28.80L0-28.80Q2.95-24.84 2.95-16.34L2.95-16.34Q2.95-8.21 0-1.87L0-1.87Q1.94 0 4.25 0L4.25 0Q6.62 0 8.78-2.09L8.78-2.09Q10.87 0 13.25 0L13.25 0Q15.55 0 17.50-1.87L17.50-1.87Q14.26-9.43 14.26-17.50L14.26-17.50Q14.26-24.98 16.78-30.17L16.78-30.17L25.56-18.94Q28.94-14.69 28.94-9.72L28.94-9.72Q28.94-5.18 26.14-1.87L26.14-1.87Q28.01 0 30.24 0L30.24 0Q32.47 0 34.49-2.09L34.49-2.09Q36.50 0 38.81 0L38.81 0Q41.04 0 42.84-1.87L42.84-1.87Q39.89-8.21 39.89-16.34L39.89-16.34Q39.89-24.84 42.84-28.80L42.84-28.80Q39.74-33.05 39.74-41.54L39.74-41.54Q39.74-47.74 41.76-52.85L41.76-52.85L42.84-55.73Q40.90-57.60 38.59-57.60L38.59-57.60Q36.22-57.60 34.13-55.51L34.13-55.51Q31.97-57.60 29.66-57.60L29.66-57.60Q27.29-57.60 25.34-55.73L25.34-55.73Q28.58-52.56 28.58-43.56L28.58-43.56Q28.58-37.80 27.00-34.56L27.00-34.56Z"/>
  </g>
</svg>