<?xml version="1.0" standalone="no"?>
<!DOCTYPE svg PUBLIC "-//W3C//DTD SVG 1.1//EN" "http://www.w3.org/Graphics/SVG/1.1/DTD/svg11.dtd">
<svg xmlns="http://www.w3.org/2000/svg" viewBox="-10 -67.60000000000001 66.368 77.60000000000001">
  <g >
    <path d="M24.19-39.82L24.19-39.82Q25.92-38.02 25.92-36.22L25.92-36.22Q25.92-34.49 24.48-33.37Q23.04-32.26 21.10-32.26L21.10-32.26Q18.65-32.26 17.06-33.98L17.06-33.98Q15.19-36.00 15.19-39.82L15.19-39.82Q15.19-43.63 17.06-45.72L17.06-45.72Q18.65-47.45 21.10-47.45L21.10-47.45Q23.04-47.45 24.48-46.30Q25.92-45.14 25.92-43.49L25.92-43.49Q25.92-41.69 24.19-39.82ZM46.37-1.87L46.37-1.87Q43.63-4.68 42.12-9.00L42.12-9.00Q41.18-11.81 40.75-15.70L40.75-15.70Q40.39-18.72 40.25-18.79L40.25-18.79Q37.37-19.87 37.51-23.26L37.51-23.26Q37.44-24.34 36.94-25.34L36.94-25.34Q35.71-27.65 32.69-28.94L32.69-28.94Q37.51-31.18 37.87-35.28L37.87-35.28Q37.94-36.58 38.23-37.66L38.23-37.66Q38.95-40.25 40.75-41.11L40.75-41.11Q38.09-42.48 37.98-47.05Q37.87-51.62 32.69-54.72L32.69-54.72Q27.65-57.60 20.74-57.60L20.74-57.60Q14.69-57.60 9.79-55.22L9.79-55.22Q7.27-57.31 4.61-57.31L4.61-57.31Q2.02-57.31 0-55.44L0-55.44Q2.88-49.25 2.88-41.26L2.88-41.26Q2.88-32.90 0-28.94L0-28.94Q2.88-25.06 2.88-16.70L2.88-16.70Q2.88-8.71 0-2.45L0-2.45Q2.02-0.65 4.61-0.65L4.61-0.65Q7.27-0.65 9.79-2.74L9.79-2.74Q12.24-0.65 14.90-0.65L14.90-0.65Q17.50-0.65 19.51-2.45L19.51-2.45Q15.19-6.84 15.19-17.93L15.19-17.93Q15.19-22.39 16.92-24.62L16.92-24.62Q18.36-26.57 20.74-26.57L20.74-26.57Q23.04-26.57 24.91-24.91Q26.78-23.26 26.78-21.02L26.78-21.02Q26.78-19.44 25.70-17.93L25.70-17.93Q29.02-13.46 29.02-10.30L29.02-10.30Q29.02-7.63 26.86-4.61L26.86-4.61Q32.11 0 38.23 0L38.23 0Q42.19 0 46.37-1.87Z"/>
  </g>
</svg>