<?xml version="1.0" standalone="no"?>
<!DOCTYPE svg PUBLIC "-//W3C//DTD SVG 1.1//EN" "http://www.w3.org/Graphics/SVG/1.1/DTD/svg11.dtd">
<svg xmlns="http://www.w3.org/2000/svg" viewBox="-10 -67.60000000000001 62.55200000000001 77.60000000000001">
  <g >
    <path d="M39.31-16.78L39.31-16.78L39.31-23.33Q39.38-24.70 39.74-25.78L39.74-25.78Q40.46-28.37 42.34-29.23L42.34-29.23Q39.53-30.60 39.31-35.21L39.31-35.21L39.31-41.47Q39.38-44.06 39.74-46.44L39.74-46.44Q40.54-52.06 42.55-55.58L42.55-55.58Q40.03-57.60 37.51-57.60L37.51-57.60Q35.28-57.60 33.70-55.73L33.70-55.73Q31.46-57.46 28.94-57.46L28.94-57.46Q26.50-57.46 24.48-55.73L24.48-55.73Q27.65-49.68 27.65-41.11L27.65-41.11L27.65-35.21Q27.58-33.84 27.29-32.76L27.29-32.76Q26.57-30.17 24.70-29.23L24.70-29.23Q27.43-27.94 27.65-23.33L27.65-23.33L27.65-17.35Q27.65-14.18 25.85-12.24L25.85-12.24Q24.19-10.58 21.82-10.58L21.82-10.58Q19.44-10.58 17.78-12.24L17.78-12.24Q15.98-14.18 15.98-17.35L15.98-17.35L15.98-23.33Q15.98-24.70 16.34-25.78L16.34-25.78Q17.06-28.37 18.94-29.23L18.94-29.23Q16.13-30.60 15.98-35.21L15.98-35.21L15.98-41.11Q15.98-49.68 19.15-55.73L19.15-55.73Q17.06-57.46 14.69-57.46L14.69-57.46Q12.17-57.46 9.86-55.73L9.86-55.73Q7.85-57.60 5.40-57.60L5.40-57.60Q2.59-57.60 0-55.58L0-55.58Q3.53-50.33 3.74-41.47L3.74-41.47L3.74-35.21Q3.67-33.84 3.38-32.76L3.38-32.76Q2.66-30.17 0.79-29.23L0.79-29.23Q3.53-27.94 3.74-23.33L3.74-23.33L3.74-16.78Q3.74-6.12 12.67-2.02L12.67-2.02Q16.34-0.29 21.53 0L21.53 0Q26.64-0.43 30.31-2.23L30.31-2.23Q39.17-6.48 39.31-16.78Z"/>
  </g>
</svg>