<?xml version="1.0" standalone="no"?>
<!DOCTYPE svg PUBLIC "-//W3C//DTD SVG 1.1//EN" "http://www.w3.org/Graphics/SVG/1.1/DTD/svg11.dtd">
<svg xmlns="http://www.w3.org/2000/svg" viewBox="-10 -67.60000000000001 70.976 77.60000000000001">
  <g >
    <path d="M25.49-1.73L25.49-1.73Q27.22 0 29.66 0L29.66 0Q32.04 0 34.49-1.44L34.49-1.44Q32.83-3.96 32.83-7.85L32.83-7.85Q32.83-14.04 36.36-21.31L36.36-21.31Q39.74-28.08 42.77-29.30L42.77-29.30Q42.34-32.11 42.34-34.56L42.34-34.56Q42.34-40.10 44.57-45.07L44.57-45.07Q46.44-49.39 50.98-55.22L50.98-55.22Q48.38-57.60 45.50-57.60L45.50-57.60Q42.84-57.60 40.54-55.22L40.54-55.22Q38.23-57.60 35.28-57.60L35.28-57.60Q32.83-57.60 31.39-56.23L31.39-56.23Q33.12-52.92 33.12-48.89L33.12-48.89Q33.12-41.40 28.37-36.65L28.37-36.65Q29.16-34.78 29.16-31.90L29.16-31.90Q29.16-28.66 28.15-25.38Q27.14-22.10 25.49-20.45L25.49-20.45Q23.83-22.10 22.79-25.38Q21.74-28.66 21.74-31.90L21.74-31.90Q21.74-34.78 22.61-36.65L22.61-36.65Q17.86-41.40 17.86-48.89L17.86-48.89Q17.86-52.92 19.58-56.23L19.58-56.23Q18.14-57.60 15.62-57.60L15.62-57.60Q12.74-57.60 10.44-55.22L10.44-55.22Q8.14-57.60 5.47-57.60L5.47-57.60Q2.59-57.60 0-55.22L0-55.22Q4.46-49.39 6.41-45.07L6.41-45.07Q8.57-40.10 8.57-34.56L8.57-34.56Q8.57-32.11 8.21-29.30L8.21-29.30Q11.23-28.08 14.54-21.31L14.54-21.31Q18.14-14.04 18.14-7.85L18.14-7.85Q18.14-3.96 16.49-1.44L16.49-1.44Q18.86 0 21.24 0L21.24 0Q23.76 0 25.49-1.73Z"/>
  </g>
</svg>