<?xml version="1.0" standalone="no"?>
<!DOCTYPE svg PUBLIC "-//W3C//DTD SVG 1.1//EN" "http://www.w3.org/Graphics/SVG/1.1/DTD/svg11.dtd">
<svg xmlns="http://www.w3.org/2000/svg" viewBox="-10 -67.60000000000001 63.48800000000001 77.60000000000001">
  <g >
    <path d="M21.74-2.09L21.74-2.09Q23.83 0 26.50 0L26.50 0Q28.73 0 31.25-1.44L31.25-1.44Q27.79-9.65 27.79-18.14L27.79-18.14Q27.79-32.47 37.37-39.60L37.37-39.60Q37.22-41.11 37.22-42.48L37.22-42.48Q37.22-51.34 43.49-55.44L43.49-55.44Q41.26-57.60 38.74-57.60L38.74-57.60Q36.00-57.60 34.13-55.73L34.13-55.73Q32.26-57.60 29.74-57.60L29.74-57.60Q26.86-57.60 25.78-55.44L25.78-55.44Q27.07-54.07 27.07-51.55L27.07-51.55Q27.07-47.38 21.74-37.08L21.74-37.08Q16.34-47.38 16.34-51.55L16.34-51.55Q16.34-54.07 17.71-55.44L17.71-55.44Q16.56-57.60 13.75-57.60L13.75-57.60Q11.16-57.60 9.36-55.73L9.36-55.73Q7.49-57.60 4.75-57.60L4.75-57.60Q2.16-57.60 0-55.44L0-55.44Q6.26-51.34 6.26-42.48L6.26-42.48Q6.26-41.11 6.12-39.60L6.12-39.60Q15.70-32.47 15.70-18.14L15.70-18.14Q15.70-9.65 12.24-1.44L12.24-1.44Q14.76 0 16.92 0L16.92 0Q19.66 0 21.74-2.09Z"/>
  </g>
</svg>